<svg width="287" height="230" viewBox="0 0 287 230" fill="none" xmlns="http://www.w3.org/2000/svg">
<path d="M135.104 5.2499V116.733C135.104 119.109 133.181 121.033 130.806 121.033H36.6386C34.2635 121.033 32.3403 119.109 32.3403 116.733V5.2499C32.339 2.87633 34.2635 0.949646 36.6386 0.949646H130.806C133.181 0.949646 135.104 2.87633 135.104 5.2499Z" fill="white"/>
<path d="M130.805 121.234H36.638C34.1572 121.234 32.1392 119.215 32.1392 116.733V5.24991C32.1378 2.76797 34.1572 0.748962 36.638 0.748962H130.805C133.286 0.748962 135.304 2.76797 135.304 5.24991V116.733C135.304 119.215 133.286 121.234 130.805 121.234ZM36.638 1.15036C34.3779 1.15036 32.5404 2.99007 32.5404 5.24991V116.733C32.5404 118.994 34.3792 120.832 36.638 120.832H130.805C133.065 120.832 134.903 118.993 134.903 116.733V5.24991C134.903 2.98873 133.064 1.15036 130.805 1.15036H36.638Z" fill="#27191C"/>
<path d="M130.849 114.786H36.5952V7.198H130.849V114.786ZM37.2639 114.117H130.181V7.86699H37.2639V114.117Z" fill="#95C7EC"/>
<path d="M130.516 20.563H36.9302V21.232H130.516V20.563Z" fill="#95C7EC"/>
<path d="M130.516 33.9267H36.9302V34.5957H130.516V33.9267Z" fill="#95C7EC"/>
<path d="M130.516 47.2918H36.9302V47.9608H130.516V47.2918Z" fill="#95C7EC"/>
<path d="M130.516 60.6568H36.9302V61.3258H130.516V60.6568Z" fill="#95C7EC"/>
<path d="M130.516 74.0219H36.9302V74.6908H130.516V74.0219Z" fill="#95C7EC"/>
<path d="M130.516 87.3869H36.9302V88.0559H130.516V87.3869Z" fill="#95C7EC"/>
<path d="M130.516 100.752H36.9302V101.421H130.516V100.752Z" fill="#95C7EC"/>
<path d="M130.828 69.2145V114.45H36.6143V32.2489C38.4237 32.0496 40.3241 32.5941 41.6935 33.801C44.0754 35.8976 44.5969 39.3482 44.9674 42.4978C46.9748 36.2227 49.0811 30.0854 51.1326 23.8745C51.8106 21.8221 54.6445 21.6535 55.5646 23.6096C56.9327 26.5157 58.2393 29.4151 59.792 32.3439C60.351 33.3982 60.9367 34.4833 61.8849 35.2058C62.8345 35.9257 64.2574 36.1692 65.2016 35.444C65.9893 34.8392 66.2848 33.722 67.1341 33.2096C68.0608 32.649 69.3273 33.0637 70.0655 33.8598C70.8038 34.6533 71.1368 35.7317 71.451 36.7673C74.4547 46.7272 77.4611 56.6884 80.4648 66.6483C85.8865 56.1492 89.4532 44.7991 90.8694 33.0651C90.9871 32.0843 91.1008 31.0688 91.5916 30.2072C92.0798 29.3482 93.056 28.6805 94.0256 28.8759C95.5061 29.1756 95.946 31.0447 96.0958 32.5459C97.4532 45.9926 100.268 59.2894 104.478 72.13C105.152 74.1851 105.945 76.3526 107.657 77.6772C109.448 79.0633 111.946 79.24 114.142 78.6807C116.338 78.1241 118.307 76.9199 120.236 75.7318C123.767 73.5576 127.299 71.386 130.83 69.2132L130.828 69.2145Z" fill="#95C7EC"/>
<path d="M111.846 79.6454C110.093 79.6454 108.468 79.1516 107.248 78.2084C105.418 76.7928 104.563 74.533 103.843 72.3414C99.6228 59.4673 96.793 46.101 95.4315 32.6155C95.2443 30.7383 94.7267 29.7014 93.8936 29.5328C93.2182 29.3977 92.5161 29.9355 92.1737 30.539C91.7605 31.2655 91.6548 32.1486 91.5425 33.0838L91.5345 33.1454C90.1195 44.8593 86.5956 56.2348 81.059 66.956L80.302 68.4224L79.8259 66.8423C78.2893 61.7473 76.7527 56.6536 75.2161 51.5586C73.7476 46.6924 72.2806 41.8275 70.8135 36.9613C70.5233 36.0006 70.2224 35.0078 69.5791 34.3161C69.0522 33.7488 68.1254 33.3942 67.4835 33.7822C67.1585 33.9789 66.9111 34.3522 66.649 34.7482C66.3761 35.159 66.0685 35.626 65.6125 35.9752C64.3674 36.9305 62.5927 36.5799 61.4841 35.7383C60.3995 34.9128 59.7642 33.714 59.2039 32.657C57.9495 30.2901 56.8381 27.9099 55.7642 25.6085C55.4981 25.0372 55.2306 24.4659 54.9618 23.8932C54.594 23.1132 53.8612 22.8724 53.2981 22.9058C52.7364 22.9393 52.0397 23.2671 51.7695 24.0832C51.0474 26.2682 50.3078 28.4785 49.591 30.6166C48.271 34.5583 46.9056 38.6351 45.6057 42.6998L44.6655 45.6407L44.3057 42.5741C43.9206 39.2907 43.3963 36.1866 41.2539 34.3014C40.0583 33.2484 38.3532 32.7292 36.6895 32.9125C36.3231 32.9527 35.9927 32.6878 35.9513 32.3212C35.9112 31.9546 36.176 31.6227 36.5424 31.5826C38.5712 31.3578 40.6628 31.9987 42.1366 33.2965C43.934 34.8794 44.7484 37.1459 45.2125 39.5636C46.2422 36.402 47.2961 33.2564 48.3232 30.1911C49.0386 28.0544 49.7782 25.844 50.499 23.6631C50.9002 22.4496 51.942 21.6468 53.2165 21.5705C54.4937 21.4916 55.6265 22.1646 56.1708 23.3246C56.4409 23.8973 56.707 24.4699 56.9745 25.0426C58.0417 27.3292 59.145 29.6934 60.3834 32.0308C60.8796 32.9661 61.4413 34.0271 62.2905 34.6733C62.9766 35.1938 64.0893 35.456 64.7954 34.9128C65.0735 34.6987 65.2955 34.3642 65.5309 34.0083C65.8479 33.5307 66.2063 32.9875 66.788 32.6356C68.0585 31.8662 69.6767 32.4563 70.5554 33.4022C71.4099 34.3201 71.771 35.5162 72.0907 36.5719C73.5577 41.4381 75.0261 46.303 76.4946 51.1692C77.8707 55.7304 79.2468 60.2915 80.623 64.854C85.6541 54.7122 88.8771 43.999 90.2065 32.9835L90.2145 32.9219C90.3375 31.8957 90.4646 30.8347 91.0116 29.8753C91.5746 28.8866 92.7996 27.946 94.1584 28.2203C95.6348 28.5186 96.5108 29.9529 96.7622 32.4804C98.1143 45.8695 100.924 59.1409 105.114 71.9226C105.796 74.0004 106.534 75.9632 108.067 77.1487C109.522 78.2739 111.731 78.6057 113.977 78.0331C116.095 77.4966 118.022 76.3098 119.885 75.1631C121.684 74.0553 123.483 72.9488 125.283 71.8423C127.015 70.7759 128.748 69.7109 130.48 68.6445C130.794 68.4505 131.206 68.5495 131.4 68.8639C131.594 69.1784 131.495 69.5905 131.18 69.7845C129.449 70.8508 127.715 71.9172 125.983 72.9822C124.185 74.0887 122.386 75.1952 120.587 76.3031C118.639 77.5019 116.623 78.7436 114.307 79.3296C113.478 79.541 112.65 79.644 111.848 79.644L111.846 79.6454Z" fill="#2A67B2"/>
<path d="M201.551 92.6652V188.173C201.551 190.549 199.628 192.473 197.252 192.473H144.551C142.176 192.473 140.253 190.549 140.253 188.173V92.6652C140.253 90.2916 142.176 88.365 144.551 88.365H197.252C199.628 88.365 201.551 90.2916 201.551 92.6652Z" fill="white"/>
<path d="M197.253 192.674H144.552C142.071 192.674 140.053 190.655 140.053 188.173V92.6652C140.053 90.1833 142.071 88.1643 144.552 88.1643H197.253C199.734 88.1643 201.752 90.1833 201.752 92.6652V188.173C201.752 190.655 199.734 192.674 197.253 192.674ZM144.552 88.5657C142.291 88.5657 140.454 90.4054 140.454 92.6652V188.173C140.454 190.434 142.293 192.272 144.552 192.272H197.253C199.513 192.272 201.35 190.432 201.35 188.173V92.6652C201.35 90.404 199.512 88.5657 197.253 88.5657H144.552Z" fill="#27191C"/>
<path d="M286.436 5.2499V79.0152C286.436 81.3914 284.513 83.3154 282.138 83.3154H144.508C142.133 83.3154 140.21 81.3914 140.21 79.0152V5.2499C140.21 2.87633 142.133 0.949646 144.508 0.949646H282.138C284.513 0.949646 286.436 2.87633 286.436 5.2499Z" fill="white"/>
<path d="M282.138 83.5161H144.508C142.027 83.5161 140.009 81.4971 140.009 79.0152V5.24991C140.009 2.76797 142.027 0.748962 144.508 0.748962H282.138C284.619 0.748962 286.637 2.76797 286.637 5.24991V79.0152C286.637 81.4971 284.619 83.5161 282.138 83.5161ZM144.508 1.15036C142.248 1.15036 140.41 2.99007 140.41 5.24991V79.0152C140.41 81.2764 142.249 83.1147 144.508 83.1147H282.138C284.398 83.1147 286.236 81.275 286.236 79.0152V5.24991C286.236 2.98873 284.397 1.15036 282.138 1.15036H144.508Z" fill="#27191C"/>
<path d="M278.826 74.4955H147.823V75.8335H278.826V74.4955Z" fill="#95C7EC"/>
<path d="M278.826 58.112H147.823V59.45H278.826V58.112Z" fill="#95C7EC"/>
<path d="M278.826 41.7285H147.823V43.0664H278.826V41.7285Z" fill="#95C7EC"/>
<path d="M278.826 25.3463H147.823V26.6843H278.826V25.3463Z" fill="#95C7EC"/>
<path d="M160.881 49.5423H152.572V75.7318H160.881V49.5423Z" fill="#95C7EC"/>
<path d="M178.684 36.2923H170.375V75.7318H178.684V36.2923Z" fill="#2A67B2"/>
<path d="M196.489 29.387H188.18V75.7318H196.489V29.387Z" fill="#95C7EC"/>
<path d="M214.295 35.9284H205.986V75.7305H214.295V35.9284Z" fill="#2A67B2"/>
<path d="M249.885 27.7721H241.576V75.7305H249.885V27.7721Z" fill="#2A67B2"/>
<path d="M267.682 20.0305H259.373V75.7318H267.682V20.0305Z" fill="#95C7EC"/>
<path d="M232.1 31.3565H223.791V75.7318H232.1V31.3565Z" fill="#95C7EC"/>
<path d="M254.681 8.53331H248.513V14.7041H254.681V8.53331Z" fill="#95C7EC"/>
<path d="M266.754 8.53331H260.586V14.7041H266.754V8.53331Z" fill="#2A67B2"/>
<path d="M278.827 8.53331H272.659V14.7041H278.827V8.53331Z" fill="#FFC632"/>
<path d="M156.86 54.0298L156.076 52.9461L174.136 39.8674L192.293 33.9936L209.877 40.3049L227.912 35.1309L245.525 29.9222L263.562 22.8349L264.05 24.0806L245.96 31.1892L228.285 36.4154L209.831 41.7111L192.27 35.4079L174.748 41.0756L156.86 54.0298Z" fill="#FFC632"/>
<path d="M286.437 92.6652V188.173C286.437 190.549 284.513 192.473 282.138 192.473H210.928C208.553 192.473 206.63 190.549 206.63 188.173V92.6652C206.63 90.2916 208.553 88.365 210.928 88.365H282.138C284.513 88.365 286.437 90.2916 286.437 92.6652Z" fill="white"/>
<path d="M282.138 192.674H210.928C208.447 192.674 206.429 190.655 206.429 188.173V92.6652C206.429 90.1833 208.447 88.1643 210.928 88.1643H282.138C284.619 88.1643 286.637 90.1833 286.637 92.6652V188.173C286.637 190.655 284.619 192.674 282.138 192.674ZM210.928 88.5657C208.667 88.5657 206.83 90.4054 206.83 92.6652V188.173C206.83 190.434 208.669 192.272 210.928 192.272H282.138C284.398 192.272 286.235 190.432 286.235 188.173V92.6652C286.235 90.404 284.397 88.5657 282.138 88.5657H210.928Z" fill="#27191C"/>
<path d="M278.612 122.201H214.456V123.825H278.612V122.201Z" fill="#95C7EC"/>
<path d="M216.08 136.634H214.456V138.258H216.08V136.634Z" fill="#95C7EC"/>
<path d="M278.612 136.634H214.456V138.258H278.612V136.634Z" fill="#95C7EC"/>
<path d="M216.08 142.798H214.456V144.422H216.08V142.798Z" fill="#2A67B2"/>
<path d="M278.612 142.798H214.456V144.422H278.612V142.798Z" fill="#95C7EC"/>
<path d="M216.08 148.962H214.456V150.586H216.08V148.962Z" fill="#2A67B2"/>
<path d="M278.612 148.962H214.456V150.586H278.612V148.962Z" fill="#95C7EC"/>
<path d="M216.08 155.138H214.456V156.762H216.08V155.138Z" fill="#95C7EC"/>
<path d="M278.612 155.138H214.456V156.762H278.612V155.138Z" fill="#95C7EC"/>
<path d="M278.612 161.302H214.456V162.926H278.612V161.302Z" fill="#95C7EC"/>
<path d="M278.612 167.466H214.456V169.09H278.612V167.466Z" fill="#95C7EC"/>
<path d="M278.612 173.63H214.456V175.254H278.612V173.63Z" fill="#95C7EC"/>
<path d="M278.612 173.63H214.456V175.254H278.612V173.63Z" fill="#95C7EC"/>
<path d="M278.612 126.618H214.456V132.09H278.612V126.618Z" fill="#95C7EC"/>
<path d="M278.612 178.425H214.456V183.898H278.612V178.425Z" fill="#95C7EC"/>
<path d="M215.823 136.634H214.456V138.258H215.823V136.634Z" fill="#2A67B2"/>
<path d="M252.103 136.634H214.456V138.258H252.103V136.634Z" fill="#2A67B2"/>
<path d="M215.823 142.798H214.456V144.422H215.823V142.798Z" fill="#2A67B2"/>
<path d="M268.477 142.798H214.456V144.422H268.477V142.798Z" fill="#2A67B2"/>
<path d="M215.823 148.962H214.456V150.586H215.823V148.962Z" fill="#2A67B2"/>
<path d="M256.274 148.962H214.456V150.586H256.274V148.962Z" fill="#2A67B2"/>
<path d="M215.823 155.138H214.456V156.762H215.823V155.138Z" fill="#2A67B2"/>
<path d="M276.438 155.138H214.456V156.762H276.438V155.138Z" fill="#2A67B2"/>
<path d="M240.317 161.302H214.456V162.926H240.317V161.302Z" fill="#2A67B2"/>
<path d="M262.045 167.466H214.456V169.09H262.045V167.466Z" fill="#2A67B2"/>
<path d="M268.477 173.63H214.456V175.254H268.477V173.63Z" fill="#2A67B2"/>
<path d="M274.213 173.63H214.456V175.254H274.213V173.63Z" fill="#2A67B2"/>
<path d="M217.43 105.264C217.631 102.406 219.92 100.115 222.777 99.9144V96.9387C220.596 97.039 218.56 97.9355 217.006 99.4902C215.452 101.045 214.556 103.081 214.456 105.264H217.43Z" fill="#2A67B2"/>
<path d="M223.594 99.9143C226.451 100.115 228.74 102.406 228.941 105.264H231.915C231.815 103.081 230.919 101.045 229.365 99.4902C227.811 97.9355 225.775 97.039 223.594 96.9387V99.9143Z" fill="#2A67B2"/>
<path d="M222.777 111.43C219.92 111.23 217.631 108.939 217.43 106.081H214.456C214.556 108.263 215.452 110.3 217.006 111.854C218.56 113.409 220.596 114.306 222.777 114.406V111.43Z" fill="#2A67B2"/>
<path d="M228.941 106.081C228.74 108.939 226.451 111.23 223.594 111.43V114.406C225.775 114.306 227.811 113.409 229.365 111.854C230.919 110.3 231.815 108.263 231.915 106.081H228.941Z" fill="#2A67B2"/>
<path d="M226.577 104.116H219.795V107.23H226.577V104.116Z" fill="#95C7EC"/>
<path d="M240.778 105.264C240.979 102.406 243.268 100.115 246.125 99.9143V96.9387C243.944 97.039 241.908 97.9355 240.354 99.4902C238.8 101.045 237.904 103.081 237.804 105.264H240.778Z" fill="#2A67B2"/>
<path d="M246.941 99.9143C249.798 100.115 252.088 102.406 252.288 105.264H255.262C255.162 103.081 254.266 101.045 252.712 99.4902C251.158 97.9355 249.123 97.039 246.941 96.9387V99.9143Z" fill="#2A67B2"/>
<path d="M246.125 111.43C243.268 111.23 240.979 108.939 240.778 106.081H237.804C237.904 108.263 238.8 110.3 240.354 111.854C241.908 113.409 243.944 114.306 246.125 114.406V111.43Z" fill="#2A67B2"/>
<path d="M252.288 106.081C252.088 108.939 249.798 111.23 246.941 111.43V114.406C249.123 114.306 251.158 113.409 252.712 111.854C254.266 110.3 255.162 108.263 255.262 106.081H252.288Z" fill="#2A67B2"/>
<path d="M249.924 104.116H243.142V107.23H249.924V104.116Z" fill="#95C7EC"/>
<path d="M264.127 105.264C264.327 102.406 266.617 100.115 269.473 99.9143V96.9387C267.292 97.039 265.257 97.9355 263.703 99.4902C262.149 101.045 261.253 103.081 261.152 105.264H264.127Z" fill="#2A67B2"/>
<path d="M270.291 99.9143C273.147 100.115 275.437 102.406 275.637 105.264H278.612C278.511 103.081 277.615 101.045 276.061 99.4902C274.507 97.9355 272.472 97.039 270.291 96.9387V99.9143Z" fill="#2A67B2"/>
<path d="M269.473 111.43C266.617 111.23 264.327 108.939 264.127 106.081H261.152C261.253 108.263 262.149 110.3 263.703 111.854C265.257 113.409 267.292 114.306 269.473 114.406V111.43Z" fill="#2A67B2"/>
<path d="M275.637 106.081C275.437 108.939 273.147 111.23 270.291 111.43V114.406C272.472 114.306 274.507 113.409 276.061 111.854C277.615 110.3 278.511 108.263 278.612 106.081H275.637Z" fill="#2A67B2"/>
<path d="M273.272 104.116H266.491V107.23H273.272V104.116Z" fill="#95C7EC"/>
<path d="M195.099 152.833V154.129C195.099 155.451 194.029 156.521 192.71 156.521H149.093C147.773 156.521 146.703 155.451 146.703 154.129V152.833C146.703 151.512 147.773 150.442 149.093 150.442H192.71C194.029 150.442 195.099 151.512 195.099 152.833Z" fill="#95C7EC"/>
<path d="M195.099 143.347V144.643C195.099 145.965 194.029 147.035 192.71 147.035H149.093C147.773 147.035 146.703 145.965 146.703 144.643V143.347C146.703 142.026 147.773 140.956 149.093 140.956H192.71C194.029 140.956 195.099 142.026 195.099 143.347Z" fill="#95C7EC"/>
<path d="M195.099 133.86V135.157C195.099 136.479 194.029 137.549 192.71 137.549H149.093C147.773 137.549 146.703 136.479 146.703 135.157V133.86C146.703 132.54 147.773 131.47 149.093 131.47H192.71C194.029 131.47 195.099 132.54 195.099 133.86Z" fill="#95C7EC"/>
<path d="M195.099 124.374V125.671C195.099 126.993 194.029 128.063 192.71 128.063H149.093C147.773 128.063 146.703 126.993 146.703 125.671V124.374C146.703 123.054 147.773 121.983 149.093 121.983H192.71C194.029 121.983 195.099 123.054 195.099 124.374Z" fill="#95C7EC"/>
<path d="M195.099 114.888V116.185C195.099 117.507 194.029 118.577 192.71 118.577H149.093C147.773 118.577 146.703 117.507 146.703 116.185V114.888C146.703 113.568 147.773 112.497 149.093 112.497H192.71C194.029 112.497 195.099 113.568 195.099 114.888Z" fill="#95C7EC"/>
<path d="M195.099 105.402V106.699C195.099 108.021 194.029 109.091 192.71 109.091H149.093C147.773 109.091 146.703 108.021 146.703 106.699V105.402C146.703 104.082 147.773 103.011 149.093 103.011H192.71C194.029 103.011 195.099 104.082 195.099 105.402Z" fill="#95C7EC"/>
<path d="M183.226 170.012H158.577C157.257 170.012 156.187 171.083 156.187 172.403V173.701C156.187 175.022 157.257 176.092 158.577 176.092H183.226C184.546 176.092 185.616 175.022 185.616 173.701V172.403C185.616 171.083 184.546 170.012 183.226 170.012Z" fill="#FFC632"/>
<path d="M195.099 162.619V163.915C195.099 165.237 194.029 166.307 192.71 166.307H149.093C147.773 166.307 146.703 165.237 146.703 163.915V162.619C146.703 161.298 147.773 160.228 149.093 160.228H192.71C194.029 160.228 195.099 161.298 195.099 162.619Z" fill="#95C7EC"/>
<path d="M117.982 130.982V166.587C117.982 169.338 115.755 171.566 113.006 171.566H36.4353C33.6857 171.566 31.459 169.338 31.459 166.587V130.982C31.459 128.234 33.6857 126.004 36.4353 126.004H113.004C115.754 126.004 117.981 128.234 117.981 130.982H117.982Z" fill="white"/>
<path d="M56.1548 134.545C48.2951 134.545 41.9253 140.919 41.9253 148.781C41.9253 156.643 48.2965 163.017 56.1548 163.017C64.0131 163.017 70.3842 156.643 70.3842 148.781C70.3842 140.919 64.0131 134.545 56.1548 134.545ZM56.1548 158.974C50.5285 158.974 45.9668 154.41 45.9668 148.781C45.9668 143.152 50.5285 138.589 56.1548 138.589C61.781 138.589 66.3427 143.152 66.3427 148.781C66.3427 154.41 61.781 158.974 56.1548 158.974Z" fill="#95C7EC"/>
<path d="M56.1544 134.545C54.6579 134.545 53.2162 134.777 51.8628 135.203L53.0811 139.061C54.0507 138.754 55.0831 138.589 56.1544 138.589C59.3961 138.589 62.2848 140.104 64.1518 142.467L67.3253 139.963C64.7201 136.663 60.684 134.546 56.1544 134.546V134.545Z" fill="#2A67B2"/>
<path d="M93.9765 134.545C86.1169 134.545 79.7471 140.919 79.7471 148.781C79.7471 156.643 86.1182 163.017 93.9765 163.017C101.835 163.017 108.206 156.643 108.206 148.781C108.206 140.919 101.835 134.545 93.9765 134.545ZM93.9765 158.974C88.3503 158.974 83.7886 154.41 83.7886 148.781C83.7886 143.152 88.3503 138.589 93.9765 138.589C99.6028 138.589 104.165 143.152 104.165 148.781C104.165 154.41 99.6028 158.974 93.9765 158.974Z" fill="#95C7EC"/>
<path d="M93.9764 134.545C89.9055 134.545 86.2318 136.256 83.6387 138.999L86.5768 141.778C88.4331 139.814 91.061 138.59 93.9764 138.59C99.604 138.59 104.164 143.154 104.164 148.783C104.164 149.692 104.045 150.574 103.821 151.414L107.728 152.458C108.041 151.286 108.209 150.054 108.209 148.783C108.209 140.921 101.837 134.546 93.9791 134.546L93.9764 134.545Z" fill="#FFC632"/>
<path d="M113.004 171.768H36.4352C33.58 171.768 31.2583 169.444 31.2583 166.588V130.983C31.2583 128.127 33.5813 125.804 36.4352 125.804H113.004C115.859 125.804 118.181 128.128 118.181 130.983V166.588C118.181 169.445 115.858 171.768 113.004 171.768ZM36.4352 126.204C33.802 126.204 31.6595 128.348 31.6595 130.982V166.587C31.6595 169.221 33.802 171.365 36.4352 171.365H113.004C115.637 171.365 117.78 169.221 117.78 166.587V130.982C117.78 128.348 115.637 126.204 113.004 126.204H36.4352Z" fill="#27191C"/>
<path d="M56.0039 221.307C56.0039 224.297 58.4318 226.729 61.4168 226.729C64.4019 226.729 66.8313 224.297 66.8313 221.307C66.8313 218.318 64.4019 215.885 61.4168 215.885C58.4318 215.885 56.0039 218.318 56.0039 221.307Z" fill="#2A67B2"/>
<path d="M34.1147 221.307C34.1147 224.297 36.5426 226.729 39.5277 226.729C42.5127 226.729 44.9421 224.297 44.9421 221.307V221.258C44.9421 221.244 44.9421 221.23 44.9406 221.218C44.8927 218.268 42.4834 215.885 39.5277 215.885C36.5719 215.885 34.1147 218.318 34.1147 221.307Z" fill="#2A67B2"/>
<path d="M42.8608 216.461C44.2746 217.441 45.2424 219.024 45.3859 220.836L58.8943 213.025V215.991C59.6583 215.625 60.5134 215.421 61.4163 215.421C62.3192 215.421 63.1743 215.625 63.9399 215.991V213.425H64.1729L64.2871 213.226L77.4482 220.836C77.5856 219.063 78.5039 217.471 79.9702 216.461L63.9399 207.193V170.64H58.8943V207.191L42.8608 216.461Z" fill="#2A67B2"/>
<path d="M77.8931 221.199V221.306C77.8931 224.294 80.3148 226.722 83.2967 226.729L80.8642 216.467C80.75 216.525 80.6404 216.587 80.5339 216.65C78.9179 217.618 77.9332 219.313 77.8931 221.199Z" fill="#2A67B2"/>
<path d="M61.3979 132.347L64.3305 144.721C64.3305 144.721 64.3336 144.729 64.3336 144.732C64.3398 144.746 64.3429 144.762 64.3444 144.775L68.1475 160.819C68.1506 160.83 68.1537 160.843 68.1552 160.853L70.3654 170.176L70.475 170.64L81.2422 216.061V216.069H81.2437V216.075L81.2468 216.08V216.084L81.2499 216.089V216.095L83.7719 226.727H90.3718L82.3581 170.639L82.2917 170.175L81.4768 164.472L81.4722 164.438L77.6305 137.556L77.6228 137.501V137.495L76.8866 132.345H61.3979V132.347Z" fill="#2A67B2"/>
<path d="M27.1597 91.0705V120.016H36.6087V84.5116C36.6087 84.4822 36.6118 84.4528 36.6164 84.425H33.795C30.1355 84.425 27.1597 87.4069 27.1597 91.0705Z" fill="#2A67B2"/>
<path d="M27.1597 132.345V144.482L28.8945 132.345H27.1597Z" fill="#2A67B2"/>
<path d="M15.875 226.729H22.4748L35.8597 170.271L39.6612 154.233L39.6628 154.222L40.9963 148.6C40.9963 148.6 40.9963 148.595 40.9979 148.592L44.8488 132.347H29.3602L27.1592 147.743L27.1561 147.77C27.1561 147.779 27.1561 147.787 27.1531 147.794L15.875 226.729Z" fill="#2A67B2"/>
<path d="M36.3667 170.138C36.6538 170.164 36.9501 170.176 37.2542 170.176H54.8095C59.1219 170.176 62.6317 166.661 62.6317 162.341C62.6317 161.18 62.3848 160.062 61.8955 159.019C58.6697 157.787 55.4361 156.391 52.2828 154.871C52.0328 154.751 51.7843 154.63 51.5358 154.506H40.0725L36.3667 170.138Z" fill="#073B7A"/>
<path d="M57.5396 170.176H69.8903L67.7325 161.071C66.0023 160.513 64.2443 159.9 62.4987 159.244C62.8938 160.226 63.0945 161.266 63.0945 162.341C63.0945 165.959 60.7716 169.045 57.5396 170.176Z" fill="#073B7A"/>
<path d="M81.979 164.712L82.76 170.176H95.3577C97.9677 170.176 100.351 168.91 101.812 166.768C95.0922 166.624 88.4229 165.932 81.979 164.712Z" fill="#073B7A"/>
<path d="M137.312 147.102C137.366 147.147 137.42 147.195 137.474 147.241C139.753 149.241 141.338 151.858 142.059 154.814L149.408 189.462L158.184 201.779C158.232 201.846 158.301 201.89 158.383 201.903C158.465 201.917 158.55 201.898 158.617 201.849L159.307 201.346L167.435 195.421L170.746 193.008L171.686 192.322C171.717 192.299 171.724 192.257 171.701 192.224L144.433 153.721C142.541 151.051 140.099 148.795 137.312 147.102Z" fill="#FFC632"/>
<path d="M41.4658 148.626C42.5802 151.385 45.5946 153.05 48.5086 152.508L48.5333 152.503C49.1553 152.387 49.7665 152.171 50.3515 151.86L63.8475 144.683L60.9227 132.345H45.3245L41.4658 148.626Z" fill="white"/>
<path d="M49.2129 152.818C50.0386 153.247 50.8659 153.664 51.6793 154.061C51.684 154.061 51.6871 154.066 51.6917 154.067C51.9556 154.199 52.2195 154.326 52.4835 154.452C55.6399 155.975 58.878 157.371 62.1054 158.601H62.2104L62.2335 158.649C64.0224 159.328 65.8282 159.963 67.6063 160.541L63.9591 145.149L50.5696 152.27C50.1297 152.503 49.6759 152.687 49.2129 152.818Z" fill="#FF7BAC"/>
<path d="M40.1816 154.043H50.5969C49.907 153.698 49.2093 153.341 48.5163 152.976C48.1443 153.042 47.7724 153.073 47.4004 153.073C44.8784 153.073 42.466 151.623 41.2914 149.359L40.1816 154.043Z" fill="#073B7A"/>
<path d="M77.3545 132.345L78.0382 137.136L85.1767 133.341L87.0227 132.345H77.3545Z" fill="white"/>
<path d="M74.2598 84.425C76.0996 85.6307 77.7511 87.0235 79.1803 88.5724C80.2546 89.738 81.1961 91.0117 82.045 92.4463V85.739C82.045 85.0155 81.4554 84.425 80.733 84.425H74.2598Z" fill="#2A67B2"/>
<path d="M13.6948 128.965V129.331C13.6948 130.738 14.837 131.882 16.2415 131.882H216.292C217.697 131.882 218.841 130.738 218.841 129.331V128.965C218.841 127.558 217.697 126.413 216.292 126.413H95.7389C91.3077 127.521 85.3329 128.755 79.0835 128.755C77.5971 128.755 76.0938 128.685 74.5935 128.527C71.8261 128.237 67.9999 127.638 63.8927 126.413H16.2415C14.837 126.413 13.6948 127.558 13.6948 128.965Z" fill="#2A67B2"/>
<path d="M42.5439 120.016H50.9265C49.4741 118.864 48.2084 117.615 47.1326 116.277C45.5907 114.358 44.4424 112.233 43.7185 109.956C43.5348 109.379 43.3759 108.798 43.24 108.215L42.5439 120.016Z" fill="white"/>
<path d="M1.08154 123.032V123.397C1.08154 124.805 2.2237 125.949 3.62979 125.949H62.417C61.5249 125.654 60.6235 125.327 59.7222 124.967C56.572 123.711 53.8323 122.21 51.5279 120.48H3.62979C2.2237 120.48 1.08154 121.625 1.08154 123.032Z" fill="#2A67B2"/>
<path d="M37.0718 84.5116V120.016H42.0803L42.886 106.352V106.349L42.8968 106.306C41.98 100.126 43.633 93.9967 47.4886 89.9173C49.5831 87.7006 52.1128 85.8162 54.8524 84.425H37.1582C37.1088 84.425 37.0718 84.4636 37.0718 84.5116Z" fill="#2A67B2"/>
<path d="M128.142 187.766V226.729H134.047C133.87 226.514 133.773 226.249 133.768 225.967L133.513 212.425C133.486 208.791 134.091 206.324 134.603 204.894C134.748 204.487 135.122 204.223 135.554 204.222H135.558L135.407 202.003L134.904 202.048C134.879 202.05 134.855 202.051 134.828 202.051C134.504 202.051 134.202 201.861 134.058 201.555L128.142 187.766Z" fill="#2A67B2"/>
<path d="M133.976 212.419L134.231 225.957C134.235 226.169 134.322 226.367 134.474 226.512C134.626 226.656 134.82 226.729 135.033 226.729H135.039L137.131 226.664C137.56 226.65 137.901 226.291 137.892 225.861L137.683 215.862C137.679 215.605 137.83 215.379 138.071 215.286C138.31 215.195 138.572 215.263 138.739 215.46C138.801 215.531 138.863 215.603 138.927 215.678C140.36 217.302 142.749 219.371 145.164 221.076C147.575 222.779 151.138 224.942 154.414 225.572C158.705 226.396 161.243 225.858 162.618 225.26C164.228 224.56 165.961 223.326 165.961 222.269C165.961 221.782 165.56 221.362 164.771 221.02C164.046 220.705 161.814 220.049 160.741 219.734L160.707 219.723C160.443 220.737 159.772 221.682 158.875 222.289C158.008 222.876 156.995 223.096 156.023 222.907C154.169 222.55 149.298 220.269 144.731 216.506C144.445 216.27 144.187 216.052 143.945 215.84C140.096 212.492 137.449 208.862 136.075 205.052C136.027 204.917 135.944 204.826 135.85 204.767C135.756 204.71 135.649 204.685 135.555 204.685C135.368 204.685 135.134 204.783 135.038 205.05C134.539 206.444 133.95 208.854 133.976 212.419Z" fill="black"/>
<path d="M160.262 219.595C160.03 220.505 159.427 221.358 158.616 221.906C158.076 222.272 157.202 222.665 156.111 222.451C154.548 222.152 149.692 219.994 145.026 216.149C144.744 215.916 144.49 215.699 144.25 215.491C140.461 212.193 137.857 208.629 136.511 204.894C136.423 204.647 136.25 204.453 136.031 204.339L135.941 203.042L135.867 201.962L149.305 200.764C149.308 201.128 149.314 201.49 149.328 201.847C149.436 205.092 149.947 207.979 150.85 210.447C152.615 215.269 155.779 218.346 160.262 219.595Z" fill="#FFCEC7"/>
<path d="M172.08 191.957C172.249 192.198 172.197 192.523 171.959 192.696L171.184 193.262C172.544 195.707 178.684 205.365 189.186 202.048V202.045L189.369 201.989L189.434 201.969L189.703 201.889C190.782 201.564 193.026 200.889 193.832 200.751C194.878 200.572 195.599 200.774 195.975 201.351C196.716 202.492 195.807 204.673 194.802 206.196C193.94 207.502 192.041 209.415 187.888 211.114C184.721 212.41 180.487 212.549 177.494 212.436C174.509 212.326 171.339 211.893 169.22 211.306C169.122 211.278 169.027 211.252 168.936 211.224C168.852 211.199 168.804 211.25 168.787 211.275C168.769 211.298 168.735 211.36 168.784 211.433L174.409 219.698C174.792 220.263 174.65 221.037 174.091 221.428L172.373 222.626C172.161 222.773 171.914 222.85 171.663 222.85C171.586 222.85 171.509 222.842 171.433 222.829C171.103 222.767 170.816 222.58 170.627 222.301L167.803 218.132V226.729H205.516V132.347H167.803V185.916L172.08 191.957Z" fill="#2A67B2"/>
<path d="M138.019 226.729H167.34V217.449L163.034 211.093C161.03 208.064 160.192 205.667 159.842 204.189C159.743 203.767 159.911 203.342 160.274 203.105C160.277 203.105 160.28 203.101 160.283 203.099L159.391 201.859L158.89 202.224C158.755 202.322 158.598 202.371 158.436 202.371C158.393 202.371 158.349 202.368 158.306 202.36C158.103 202.326 157.925 202.215 157.808 202.047L149.649 190.597L151.586 199.729C151.637 199.932 151.595 200.147 151.473 200.317C151.351 200.488 151.16 200.598 150.95 200.617L149.768 200.722C149.823 210.705 153.577 217.231 160.358 219.142V219.137L160.583 219.204L160.623 219.216L160.871 219.289C161.953 219.607 164.204 220.269 164.955 220.593C165.929 221.015 166.425 221.58 166.425 222.269C166.425 223.629 164.474 224.959 162.802 225.685C161.368 226.31 158.734 226.876 154.329 226.028C150.969 225.382 147.346 223.184 144.898 221.454C142.456 219.729 140.036 217.635 138.582 215.984C138.514 215.908 138.45 215.834 138.388 215.76C138.331 215.693 138.263 215.71 138.235 215.721C138.209 215.732 138.146 215.764 138.147 215.852L138.356 225.852C138.362 226.189 138.234 226.5 138.019 226.729Z" fill="#2A67B2"/>
<path d="M160.292 204.081C160.635 205.523 161.455 207.865 163.419 210.835L167.761 217.243L167.764 217.25L171.01 222.042C171.129 222.216 171.31 222.334 171.516 222.373C171.725 222.411 171.935 222.366 172.107 222.244L173.825 221.048C174.177 220.802 174.267 220.314 174.026 219.96L168.402 211.694C168.257 211.481 168.261 211.209 168.412 211.001C168.564 210.793 168.821 210.706 169.067 210.78C169.156 210.807 169.249 210.833 169.345 210.859C171.43 211.437 174.559 211.864 177.511 211.972C181.68 212.128 185.303 211.671 187.713 210.685C191.757 209.031 193.589 207.191 194.415 205.939C195.384 204.472 196.164 202.49 195.587 201.604C195.321 201.196 194.756 201.063 193.909 201.209C193.131 201.342 190.907 202.011 189.837 202.333L189.797 202.345C190.129 203.337 190.083 204.497 189.661 205.495C189.255 206.463 188.525 207.2 187.608 207.573C185.86 208.287 180.536 209.038 174.659 208.381C174.29 208.34 173.955 208.298 173.637 208.253C168.587 207.551 164.39 205.957 161.163 203.515C161.01 203.399 160.846 203.384 160.709 203.416H160.708C160.64 203.432 160.578 203.459 160.527 203.493C160.371 203.595 160.228 203.804 160.292 204.081Z" fill="black"/>
<path d="M189.235 205.316C188.98 205.919 188.462 206.726 187.434 207.143C185.96 207.746 180.715 208.592 174.709 207.921C174.345 207.88 174.015 207.839 173.7 207.794C168.729 207.103 164.604 205.539 161.442 203.146C161.234 202.988 160.985 202.918 160.74 202.942L160.395 202.464L159.764 201.586L170.806 193.535C170.942 193.775 171.129 194.093 171.365 194.469C172.269 195.899 173.913 198.146 176.253 199.994C178.959 202.132 181.857 203.203 184.913 203.203C186.36 203.203 187.84 202.963 189.352 202.482C189.655 203.371 189.613 204.415 189.235 205.316Z" fill="#FFCEC7"/>
<path d="M97.5322 125.949H228.905C230.308 125.949 231.452 124.805 231.452 123.397V123.032C231.452 121.625 230.308 120.48 228.905 120.48H115.347C112.001 121.614 108.937 122.604 105.998 123.5C104.114 124.074 102.092 124.683 100.085 125.249C99.2485 125.487 98.3919 125.722 97.5322 125.949Z" fill="#2A67B2"/>
<path d="M43.3119 106.063L43.1652 106.294L43.3582 106.391C43.5341 107.538 43.7996 108.684 44.1592 109.815C44.8646 112.036 45.9867 114.113 47.4931 115.986C48.7232 117.518 50.1463 118.858 51.6898 120.031C51.7345 120.047 51.7731 120.076 51.7978 120.115C51.7978 120.115 51.7988 120.116 51.8009 120.118C55.5006 122.904 59.8794 124.74 63.9479 125.95C63.951 125.952 63.9541 125.952 63.9556 125.952C63.9664 125.952 63.9757 125.952 63.985 125.957C63.9911 125.957 63.9973 125.958 64.0019 125.961H64.0035C64.0127 125.966 64.022 125.97 64.0313 125.975C64.0313 125.975 64.0313 125.977 64.0343 125.977C68.302 127.238 72.2208 127.81 74.641 128.065C82.3892 128.883 90.2021 127.32 95.6521 125.955C95.6552 125.955 95.6567 125.954 95.6583 125.954C95.9346 125.884 96.2047 125.816 96.4686 125.748C96.6152 125.709 96.7649 125.671 96.9224 125.63L96.9424 125.626C97.9565 125.36 98.9705 125.082 99.9583 124.802C101.962 124.238 103.981 123.629 105.864 123.057C108.804 122.16 111.868 121.171 115.219 120.035C115.232 120.028 115.246 120.024 115.262 120.021C115.367 119.984 115.47 119.948 115.577 119.912C116.023 119.761 116.285 119.296 116.188 118.833L114.14 109.188C114.032 108.682 113.596 108.314 113.081 108.294C110 108.172 101.846 107.773 92.6871 106.694C90.7871 106.47 89.0384 106.241 87.3421 105.997L86.4562 105.867C86.4562 105.867 86.4531 105.867 86.4515 105.867C85.0362 105.657 83.6177 105.427 82.2364 105.182C71.2608 103.241 64.056 100.653 60.8193 97.4903C60.7283 97.4006 60.7252 97.2538 60.8147 97.1626C60.9042 97.0698 61.0508 97.0683 61.1434 97.1579C64.3122 100.254 71.4352 102.8 82.3166 104.726C83.5853 104.95 84.8865 105.162 86.1876 105.359C85.3619 101.851 84.374 98.1473 82.7704 94.7913C82.7673 94.7867 82.7642 94.782 82.7627 94.7758C82.5312 94.2966 82.3043 93.8561 82.0727 93.4325C81.1328 91.7151 80.0755 90.228 78.8407 88.8878C77.268 87.1843 75.4204 85.6725 73.346 84.3925C72.6947 83.9891 72.0032 83.5995 71.2855 83.2347C70.3224 85.6369 68.958 87.0127 67.2278 87.3234C66.97 87.3698 66.7107 87.3914 66.4514 87.3914C63.1422 87.3914 59.7867 83.8793 59.1539 83.1837C58.072 83.5161 56.9977 83.9257 55.959 84.4065C52.923 85.8039 50.1108 87.8196 47.8249 90.2373C44.1129 94.1668 42.4861 100.097 43.3119 106.065V106.063Z" fill="white"/>
<path d="M74.4621 67.7471C73.3632 65.6958 71.3783 64.2319 69.0693 63.8517C69.0523 63.8486 69.0338 63.8455 69.0153 63.8424C66.0179 63.3586 64.885 62.5377 64.4821 61.8622C64.408 61.7385 64.3587 61.618 64.3262 61.5067C64.0824 61.8035 63.82 62.2487 63.5653 62.7433C63.5622 62.751 63.5576 62.7588 63.5545 62.765C63.5159 62.8407 63.4773 62.918 63.4388 62.9953C63.4357 62.9999 63.4341 63.0046 63.431 63.0092C63.394 63.0849 63.3585 63.1607 63.3214 63.2364C63.306 63.2674 63.2921 63.2983 63.2767 63.3292C63.2582 63.3678 63.2412 63.4065 63.2227 63.4451C63.1162 63.6739 63.0128 63.9042 62.9155 64.1268C62.7072 64.6029 62.613 65.1223 62.6284 65.6417C62.6439 66.1627 62.8136 66.6666 62.9109 67.1752C63.039 67.8368 63.0498 68.503 63.022 69.1724C63.0205 69.1894 63.0205 69.2033 63.0189 69.2203C63.0143 69.3239 63.0081 69.4414 62.9973 69.5681C62.9973 69.5789 62.9973 69.5882 62.9942 69.599C62.9896 69.6531 62.9834 69.7088 62.9773 69.766C62.9773 69.7799 62.9742 69.7954 62.9726 69.8108C62.9649 69.8742 62.9556 69.9407 62.9464 70.0071C62.9448 70.0133 62.9448 70.0179 62.9433 70.0241C62.9325 70.0968 62.9201 70.171 62.9063 70.2452C62.9016 70.2653 62.8985 70.2869 62.8939 70.307C62.8831 70.3611 62.8708 70.4183 62.8584 70.474C62.8553 70.4894 62.8522 70.5049 62.8491 70.5203C62.8491 70.5234 62.8461 70.5265 62.8445 70.5312C62.789 70.7661 62.7149 71.0135 62.6161 71.2685C62.5713 71.386 62.4015 71.369 62.3815 71.2453C62.3321 70.9315 62.2765 70.6378 62.2163 70.3611C62.2071 70.3147 62.1963 70.2684 62.1855 70.222C62.1654 70.1339 62.1453 70.0473 62.1237 69.9623C62.1129 69.9159 62.1021 69.8696 62.0898 69.8247C62.0682 69.7428 62.0466 69.6655 62.0249 69.5882C62.0126 69.5434 62.0002 69.497 61.9879 69.4537C61.9647 69.3795 61.9431 69.3084 61.9215 69.2389C61.9076 69.1956 61.8937 69.1507 61.8799 69.1075C61.8567 69.041 61.8336 68.9761 61.8119 68.9127C61.7965 68.8709 61.7826 68.8277 61.7672 68.7875C61.744 68.7256 61.7209 68.6669 61.6977 68.6082C61.6808 68.5695 61.6669 68.5293 61.6499 68.4907C61.6267 68.435 61.6036 68.3809 61.5789 68.3268C61.5634 68.2897 61.5465 68.2526 61.531 68.2155C61.5063 68.1645 61.4816 68.115 61.457 68.0656C61.4415 68.0316 61.4245 67.996 61.4076 67.9635C61.3813 67.9125 61.3551 67.8662 61.3288 67.8182C61.2933 67.7502 61.2563 67.6868 61.2193 67.625C61.1992 67.591 61.1807 67.5555 61.1606 67.5245C61.1359 67.4859 61.1128 67.4503 61.0881 67.4132C61.0695 67.3854 61.051 67.3576 61.034 67.3313C61.0093 67.2958 60.9847 67.2618 60.96 67.2277C60.9414 67.2046 60.9245 67.1783 60.9059 67.1551C60.8812 67.1226 60.8565 67.0917 60.8334 67.0608C60.8149 67.0392 60.7979 67.016 60.7794 66.9959C60.7547 66.9665 60.73 66.9387 60.7053 66.9108C60.6883 66.8907 60.6713 66.8707 60.6544 66.8521C60.6297 66.8258 60.605 66.8011 60.5803 66.7748C60.5633 66.7578 60.5479 66.7408 60.5309 66.7238C60.5062 66.7006 60.4815 66.6774 60.4583 66.6558C60.4414 66.6403 60.4244 66.6249 60.4089 66.6094C60.3842 66.5893 60.3611 66.5677 60.3379 66.5491C60.321 66.5352 60.3055 66.5228 60.2901 66.5089C60.2669 66.4904 60.2438 66.4718 60.2206 66.4548C60.2052 66.444 60.1898 66.4316 60.1759 66.4208C60.1527 66.4054 60.1296 66.3884 60.1064 66.3729C60.0925 66.3636 60.0786 66.3544 60.0647 66.3451C60.0416 66.3312 60.02 66.3157 59.9968 66.3033C59.9845 66.2956 59.9721 66.2879 59.9598 66.2802C59.6727 66.1132 59.3378 66.0591 59.0106 66.1163C58.9797 66.1209 58.9519 66.1256 58.9241 66.1287H58.921C58.921 66.1287 58.918 66.1302 58.9164 66.1302C57.8823 66.2848 56.9562 66.9495 56.558 67.8244C56.1428 68.7303 56.3975 69.9159 57.1739 70.7105C57.8746 71.4262 58.9905 71.74 60.0848 71.5329C60.0894 71.5329 60.0956 71.5329 60.1003 71.5329C60.1203 71.5298 60.1388 71.5298 60.1589 71.5329C60.1682 71.5329 60.179 71.5329 60.1882 71.539C60.1975 71.5406 60.2083 71.5437 60.2176 71.5483C60.2314 71.5529 60.2453 71.5607 60.2577 71.57C60.2639 71.573 60.2685 71.5777 60.2747 71.5823C60.2855 71.5901 60.2947 71.5993 60.304 71.6101C60.3132 71.6194 60.321 71.6302 60.3271 71.6426C60.3271 71.6442 60.3271 71.6457 60.3302 71.6472C63.2829 76.8227 60.1635 81.9455 59.523 82.8993C60.2314 83.6629 63.9219 87.4455 67.1461 86.8674C68.7498 86.5783 70.0201 85.2381 70.9245 82.8823L70.4337 79.0239C70.4322 79.0131 70.4322 79.0038 70.4322 78.993C70.4322 78.9775 70.4337 78.9621 70.4368 78.9482C70.4399 78.9358 70.443 78.9234 70.4476 78.9111C70.4507 78.9018 70.4553 78.8925 70.4599 78.8832C70.463 78.8786 70.4661 78.8724 70.4692 78.8678C70.4754 78.8585 70.4816 78.8492 70.4893 78.8415C70.5093 78.8199 70.5325 78.7998 70.5603 78.7874C70.5634 78.7843 70.568 78.7828 70.5711 78.7812C71.9617 78.1799 73.107 77.019 73.7151 75.5968C74.3062 74.2179 74.3834 72.4974 74.4513 70.9794L74.4729 70.5404C74.5131 69.6902 74.5331 68.8184 74.5532 67.9744C74.5532 67.9589 74.5532 67.9419 74.5547 67.9265C74.5239 67.8662 74.493 67.8074 74.4621 67.7487V67.7471ZM70.5294 74.034C70.3473 74.6152 69.8781 75.4175 69.1573 75.7638C68.9273 75.8766 68.6911 75.9323 68.4504 75.9323C68.2466 75.9323 68.0398 75.8921 67.833 75.8117C67.0566 75.5103 66.5365 74.5673 66.237 73.8284C66.163 73.646 66.1892 73.4419 66.3034 73.2843C66.4192 73.1266 66.6028 73.0416 66.7989 73.0586L70.0386 73.3152C70.2099 73.3276 70.3627 73.4188 70.4599 73.561C70.5541 73.7016 70.5803 73.8732 70.5294 74.034Z" fill="#FFCEC7"/>
<path d="M70.5804 79.0394L70.8536 81.4601C70.7594 81.4354 70.477 81.304 70.3844 81.2762C69.4722 80.9778 68.5847 80.6238 67.7173 80.2204C66.8499 79.8138 65.9778 79.3918 65.2092 78.8137C65.044 78.69 64.885 78.5586 64.7631 78.3917C64.6257 78.2015 64.5131 77.9047 64.6381 77.6775C64.7847 77.3993 65.1212 77.3992 65.3944 77.4425C66.7835 77.6698 68.0476 78.3654 69.3981 78.7194C69.7361 78.809 70.0803 78.8755 70.4338 78.908C70.5464 78.9188 70.6668 78.9203 70.7811 78.9389C70.7162 78.9729 70.6483 79.0085 70.5819 79.0409L70.5804 79.0394Z" fill="#FF9A95"/>
<path d="M70.0884 73.8949C69.9217 74.4266 69.5065 75.0821 68.9571 75.3464C68.6499 75.4948 68.3273 75.5056 68.0001 75.3789C67.3457 75.1253 66.8842 74.1886 66.6666 73.6537C66.6481 73.6089 66.6666 73.5749 66.6774 73.5579C66.6882 73.544 66.7129 73.5192 66.753 73.5192C66.7561 73.5192 66.7592 73.5192 66.7623 73.5192L70.002 73.7758C70.0452 73.7789 70.0684 73.8068 70.0761 73.8191C70.0869 73.8346 70.0977 73.8609 70.0884 73.8933V73.8949Z" fill="#FF9A95"/>
<path d="M133.89 114.241C133.845 114.408 133.706 114.51 133.557 114.562C133.342 114.637 133.157 114.644 132.925 114.641C132.291 114.633 131.657 114.586 131.024 114.556C130.363 114.525 129.704 114.494 129.045 114.463C127.742 114.402 126.441 114.343 125.137 114.281C125.092 114.276 125.047 114.273 125.003 114.269C124.878 114.258 124.771 114.385 124.771 114.501C124.771 114.633 124.878 114.722 125.003 114.732C125.015 114.734 125.029 114.734 125.041 114.735C125.041 114.737 125.043 114.737 125.044 114.737C125.058 114.74 125.074 114.742 125.089 114.743C125.106 114.743 125.123 114.745 125.14 114.746C126.066 114.831 126.986 114.984 127.89 115.201C127.89 115.201 127.904 115.215 127.912 115.219C127.915 115.222 127.918 115.224 127.923 115.226C127.929 115.232 127.937 115.235 127.945 115.238C127.949 115.241 127.955 115.244 127.96 115.246C127.971 115.25 127.982 115.253 127.992 115.256C127.995 115.256 127.999 115.258 128.003 115.258C128.017 115.261 128.031 115.263 128.046 115.263H128.142C128.236 115.286 128.33 115.311 128.425 115.335C129.419 115.603 130.394 115.944 131.335 116.363C131.567 116.467 131.8 116.572 132.027 116.688C132.212 116.784 132.411 116.895 132.532 117.071C132.637 117.226 132.672 117.407 132.586 117.552C132.502 117.69 132.32 117.776 132.146 117.796C131.896 117.826 131.641 117.77 131.396 117.725C131.119 117.676 130.843 117.626 130.567 117.577C130.014 117.479 129.46 117.38 128.908 117.281C128.517 117.212 128.128 117.144 127.739 117.074C127.739 117.074 127.738 117.074 127.736 117.073C127.306 116.997 126.875 116.92 126.444 116.844C126.239 116.807 126.032 116.77 125.825 116.733C125.725 116.716 125.597 116.669 125.493 116.689C125.487 116.689 125.481 116.691 125.475 116.692C125.475 116.692 125.474 116.693 125.472 116.694C125.447 116.699 125.424 116.706 125.402 116.72C125.398 116.722 125.393 116.723 125.389 116.728C125.322 116.757 125.257 116.801 125.194 116.832C123.864 117.493 122.439 117.972 120.984 118.263C119.906 118.478 118.809 118.586 117.711 118.586C117.341 118.586 116.971 118.574 116.6 118.549L114.961 110.828C115.103 110.789 115.245 110.749 115.387 110.709C115.592 110.651 115.799 110.593 116.004 110.537C117.397 110.146 118.786 109.749 120.162 109.311C121.715 108.818 123.257 108.28 124.78 107.702C125.538 107.414 126.291 107.118 127.04 106.809C127.41 106.654 127.781 106.498 128.148 106.34C128.511 106.186 128.869 106.015 129.243 105.889C129.584 105.774 129.96 105.685 130.321 105.751C130.641 105.811 130.968 105.974 131.141 106.26C131.494 106.841 130.974 107.458 130.519 107.815C130.226 108.045 129.894 108.235 129.564 108.407C129.222 108.585 128.871 108.742 128.511 108.878C127.779 109.155 127.031 109.342 126.254 109.432H126.248C126.165 109.435 126.103 109.473 126.069 109.528C126.065 109.532 126.06 109.538 126.057 109.545C126.035 109.577 126.023 109.617 126.023 109.664C126.023 109.667 126.023 109.668 126.023 109.671C126.023 109.682 126.023 109.693 126.026 109.705C126.037 109.793 126.092 109.874 126.193 109.891C126.196 109.892 126.197 109.892 126.2 109.892C126.207 109.894 126.214 109.896 126.22 109.896C126.151 109.9 126.268 109.897 126.298 109.899C126.324 109.899 126.349 109.899 126.375 109.902C126.438 109.905 126.501 109.908 126.565 109.911C126.677 109.917 126.792 109.922 126.906 109.93C127.145 109.943 127.386 109.96 127.627 109.979C128.1 110.016 128.573 110.061 129.045 110.117C129.52 110.171 129.994 110.236 130.467 110.308C130.487 110.316 130.508 110.319 130.528 110.319H130.531C130.863 110.37 131.193 110.424 131.522 110.484C131.927 110.559 132.331 110.631 132.734 110.721C133.047 110.789 133.396 110.885 133.603 111.151C133.7 111.276 133.756 111.435 133.722 111.591C133.694 111.721 133.611 111.823 133.504 111.908C133.237 112.12 132.876 112.199 132.55 112.265C132.172 112.343 131.791 112.386 131.406 112.418C131.203 112.435 130.999 112.448 130.795 112.454C130.686 112.458 130.576 112.46 130.467 112.462C130.419 112.462 130.369 112.462 130.321 112.462C130.312 112.462 130.303 112.462 130.294 112.463C129.882 112.406 129.469 112.353 129.056 112.302C127.69 112.135 126.319 111.993 124.947 111.874C124.822 111.863 124.716 111.989 124.716 112.106C124.716 112.239 124.824 112.327 124.947 112.338C125.112 112.352 125.277 112.367 125.443 112.383C126.751 112.5 128.057 112.641 129.36 112.805C129.647 112.84 129.934 112.877 130.221 112.916C130.238 112.922 130.257 112.924 130.275 112.925H130.292C130.624 112.97 130.956 113.017 131.288 113.063C131.61 113.109 131.931 113.156 132.252 113.205C132.542 113.25 132.837 113.284 133.121 113.363C133.357 113.428 133.58 113.528 133.734 113.711C133.794 113.78 133.85 113.882 133.876 113.969C133.905 114.066 133.913 114.15 133.888 114.241H133.89Z" fill="#FFCEC7"/>
<path d="M78.1094 137.624L81.9094 164.226C88.5077 165.485 95.3436 166.187 102.232 166.313H102.237C107.657 166.417 113.277 166.162 118.938 165.556L119.108 165.537L128.122 186.547L128.125 186.553L134.48 201.365C134.549 201.512 134.702 201.6 134.862 201.586L135.602 201.519H135.605C135.605 201.519 135.617 201.519 135.623 201.519L150.908 200.156C150.985 200.148 151.052 200.111 151.096 200.049C151.14 199.988 151.155 199.913 151.135 199.833L148.968 189.614L141.609 154.919C140.913 152.062 139.377 149.529 137.168 147.592C135.728 146.329 134.077 145.386 132.254 144.788C132.194 144.766 132.135 144.748 132.073 144.727L132.033 144.715L92.2984 132.347H87.9999L85.3976 133.752L78.1109 137.626L78.1094 137.624Z" fill="#FFC632"/>
<path d="M147.638 157.442L167.34 185.262V132.407L147.638 157.442Z" fill="#2A67B2"/>
<path d="M83.5576 95.3911C83.6549 95.558 85.632 98.8599 87.3144 105.524L87.4085 105.538C89.1002 105.782 90.8458 106.011 92.7412 106.233C98.665 106.931 104.167 107.345 108.145 107.581C102.02 105.569 96.1738 102.998 90.7532 99.9311C88.0414 98.3977 85.6768 96.906 83.5576 95.3911Z" fill="white"/>
<path d="M117.711 118.586C117.341 118.586 116.971 118.574 116.6 118.549L114.961 110.828C115.103 110.789 115.245 110.749 115.387 110.709C115.592 110.651 115.799 110.593 116.004 110.537L117.697 118.512C117.702 118.537 117.708 118.561 117.711 118.586Z" fill="#FF9A95"/>
<path d="M171.365 194.469L160.395 202.464L159.764 201.586L170.806 193.535C170.942 193.775 171.129 194.093 171.365 194.469Z" fill="#FF9A95"/>
<path d="M149.328 201.847L135.941 203.042L135.867 201.962L149.305 200.764C149.308 201.128 149.314 201.49 149.328 201.847Z" fill="#FF9A95"/>
<path d="M95.358 170.64H82.5596C82.4315 170.64 82.3281 170.537 82.3281 170.408C82.3281 170.28 82.4315 170.176 82.5596 170.176H95.358C98.1038 170.176 100.6 168.774 102.035 166.425C102.101 166.315 102.243 166.281 102.353 166.347C102.463 166.414 102.496 166.558 102.43 166.666C100.91 169.155 98.2659 170.64 95.358 170.64Z" fill="#27191C"/>
<path d="M70.1838 170.64H53.4327C53.3046 170.64 53.2012 170.537 53.2012 170.408C53.2012 170.28 53.3046 170.176 53.4327 170.176H70.1838C70.312 170.176 70.4154 170.28 70.4154 170.408C70.4154 170.537 70.312 170.64 70.1838 170.64Z" fill="#27191C"/>
<path d="M54.8096 170.642H37.2543C36.8407 170.642 36.4363 170.618 36.0535 170.572C35.9269 170.557 35.8359 170.441 35.8513 170.314C35.8667 170.187 35.981 170.096 36.1091 170.111C36.4749 170.155 36.8592 170.178 37.2543 170.178H54.8096C59.1236 170.178 62.6319 166.663 62.6319 162.342C62.6319 161.155 62.3741 160.013 61.8632 158.949C61.8447 158.915 61.8324 158.876 61.8324 158.835C61.8324 158.706 61.9358 158.603 62.0639 158.603H62.2105L62.2738 158.734C62.8186 159.866 63.0949 161.079 63.0949 162.342C63.0949 166.918 59.3783 170.642 54.8096 170.642Z" fill="#27191C"/>
<path d="M51.5897 154.508H39.8887C39.7606 154.508 39.6572 154.404 39.6572 154.276C39.6572 154.148 39.7606 154.044 39.8887 154.044H51.5897C51.7178 154.044 51.8212 154.148 51.8212 154.276C51.8212 154.404 51.7178 154.508 51.5897 154.508Z" fill="#27191C"/>
<path d="M26.9283 120.481C26.8002 120.481 26.6968 120.378 26.6968 120.249V91.072C26.6968 87.1518 29.8809 83.9628 33.7951 83.9628H55.8635C55.9916 83.9628 56.095 84.0664 56.095 84.1947C56.095 84.323 55.9916 84.4265 55.8635 84.4265H33.7951C30.1356 84.4265 27.1598 87.4084 27.1598 91.072V120.249C27.1598 120.378 27.0564 120.481 26.9283 120.481Z" fill="#27191C"/>
<path d="M26.9283 147.977C26.8002 147.977 26.6968 147.873 26.6968 147.745V132.115C26.6968 131.987 26.8002 131.883 26.9283 131.883C27.0564 131.883 27.1598 131.987 27.1598 132.115V147.745C27.1598 147.873 27.0564 147.977 26.9283 147.977Z" fill="#27191C"/>
<path d="M45.1719 221.461C45.0916 221.461 45.0145 221.419 44.9712 221.345C44.908 221.233 44.945 221.093 45.0561 221.028L58.8963 213.026V216.372C58.8963 216.5 58.7929 216.604 58.6648 216.604C58.5367 216.604 58.4333 216.5 58.4333 216.372V213.83L45.2877 221.431C45.2506 221.453 45.212 221.462 45.1719 221.462V221.461Z" fill="#27191C"/>
<path d="M77.6633 221.461C77.6247 221.461 77.5846 221.451 77.5476 221.43L64.4035 213.829V216.372C64.4035 216.5 64.3001 216.604 64.1719 216.604C64.0438 216.604 63.9404 216.5 63.9404 216.372V213.425H64.1735L64.2877 213.227L77.7791 221.028C77.8902 221.091 77.9273 221.233 77.864 221.345C77.8208 221.419 77.7436 221.461 77.6633 221.461Z" fill="#27191C"/>
<path d="M42.4199 216.684C42.3397 216.684 42.2625 216.642 42.2193 216.568C42.156 216.457 42.1931 216.316 42.3042 216.251L58.4333 206.924V170.176H64.4034V206.508C64.4034 206.636 64.3 206.74 64.1719 206.74C64.0438 206.74 63.9404 206.636 63.9404 206.508V170.64H58.8964V207.191L42.5357 216.651C42.4987 216.673 42.4601 216.682 42.4199 216.682V216.684Z" fill="#27191C"/>
<path d="M80.4153 216.684C80.3767 216.684 80.3366 216.675 80.2995 216.653L63.9404 207.194V206.509C63.9404 206.381 64.0438 206.277 64.1719 206.277C64.3001 206.277 64.4035 206.381 64.4035 206.509V206.927L80.5311 216.253C80.6422 216.316 80.6792 216.458 80.616 216.57C80.5727 216.644 80.4956 216.685 80.4153 216.685V216.684Z" fill="#27191C"/>
<path d="M61.4184 227.192C58.1787 227.192 55.5425 224.552 55.5425 221.307C55.5425 218.063 58.1787 215.423 61.4184 215.423C64.6581 215.423 67.2944 218.063 67.2944 221.307C67.2944 224.552 64.6581 227.192 61.4184 227.192ZM61.4184 215.885C58.4334 215.885 56.0055 218.316 56.0055 221.306C56.0055 224.296 58.4334 226.727 61.4184 226.727C64.4035 226.727 66.8313 224.296 66.8313 221.306C66.8313 218.316 64.4035 215.885 61.4184 215.885Z" fill="#27191C"/>
<path d="M83.3077 227.194C80.0664 227.194 77.4302 224.554 77.4302 221.307C77.4302 221.277 77.4302 221.246 77.4317 221.215C77.458 219.17 78.5291 217.312 80.2964 216.253C80.4955 216.132 80.7085 216.022 80.9292 215.925C81.0465 215.874 81.1823 215.925 81.2348 216.044C81.2857 216.161 81.2348 216.297 81.116 216.35C80.9122 216.44 80.7162 216.542 80.5341 216.651C78.9057 217.627 77.9179 219.34 77.8948 221.233C77.8932 221.266 77.8948 221.287 77.8948 221.309C77.8948 224.299 80.3242 226.732 83.3092 226.732C83.3987 226.732 83.4898 226.729 83.5793 226.724C83.7121 226.716 83.8155 226.817 83.8216 226.944C83.8278 227.072 83.729 227.18 83.6025 227.186C83.5068 227.191 83.408 227.194 83.3108 227.194H83.3077Z" fill="#27191C"/>
<path d="M39.5293 227.192C36.2895 227.192 33.6533 224.552 33.6533 221.307C33.6533 218.063 36.2895 215.423 39.5293 215.423C42.769 215.423 45.4052 218.063 45.4052 221.307C45.4052 224.552 42.769 227.192 39.5293 227.192ZM39.5293 215.885C36.5442 215.885 34.1164 218.316 34.1164 221.306C34.1164 224.296 36.5442 226.727 39.5293 226.727C42.5143 226.727 44.9422 224.296 44.9422 221.306C44.9422 218.316 42.5143 215.885 39.5293 215.885Z" fill="#27191C"/>
<path d="M82.2769 93.5531C82.1487 93.5531 82.0453 93.4495 82.0453 93.3212V85.7405C82.0453 85.0155 81.4573 84.4265 80.7334 84.4265H73.4683C73.3402 84.4265 73.2368 84.323 73.2368 84.1947C73.2368 84.0664 73.3402 83.9628 73.4683 83.9628H80.7334C81.7119 83.9628 82.5084 84.7604 82.5084 85.7405V93.3212C82.5084 93.4495 82.405 93.5531 82.2769 93.5531Z" fill="#27191C"/>
<path d="M36.8404 120.481C36.7123 120.481 36.6089 120.378 36.6089 120.249V84.5131C36.6089 84.2101 36.8558 83.9628 37.1584 83.9628H55.8635C55.9916 83.9628 56.0951 84.0664 56.0951 84.1947C56.0951 84.323 55.9916 84.4265 55.8635 84.4265H37.1584C37.1105 84.4265 37.0719 84.4652 37.0719 84.5131V120.249C37.0719 120.378 36.9685 120.481 36.8404 120.481Z" fill="#27191C"/>
<path d="M51.5897 154.508H39.8887C39.7606 154.508 39.6572 154.404 39.6572 154.276C39.6572 154.148 39.7606 154.044 39.8887 154.044H51.5897C51.7178 154.044 51.8212 154.148 51.8212 154.276C51.8212 154.404 51.7178 154.508 51.5897 154.508Z" fill="#27191C"/>
<path d="M90.9078 227.192H83.4081L83.3664 227.015L60.8149 131.883H77.2898L77.3176 132.083L90.9078 227.194V227.192ZM83.7739 226.729H90.3737L76.887 132.347H61.3999L83.7739 226.729Z" fill="#27191C"/>
<path d="M63.9298 126.414H3.62994C1.96918 126.414 0.618652 125.062 0.618652 123.398V123.033C0.618652 121.37 1.96918 120.018 3.62994 120.018H51.6099C51.738 120.018 51.8414 120.121 51.8414 120.249C51.8414 120.378 51.738 120.481 51.6099 120.481H3.62994C2.22539 120.481 1.08169 121.627 1.08169 123.033V123.398C1.08169 124.805 2.22539 125.95 3.62994 125.95H63.9298C64.0579 125.95 64.1613 126.054 64.1613 126.182C64.1613 126.311 64.0579 126.414 63.9298 126.414Z" fill="#27191C"/>
<path d="M228.905 126.414H95.7032C95.5751 126.414 95.4717 126.311 95.4717 126.182C95.4717 126.054 95.5751 125.95 95.7032 125.95H228.905C230.31 125.95 231.452 124.805 231.452 123.398V123.033C231.452 121.627 230.31 120.481 228.905 120.481H115.308C115.18 120.481 115.077 120.378 115.077 120.249C115.077 120.121 115.18 120.018 115.308 120.018H228.905C230.564 120.018 231.915 121.37 231.915 123.033V123.398C231.915 125.062 230.564 126.414 228.905 126.414Z" fill="#27191C"/>
<path d="M216.292 132.347H16.2412C14.582 132.347 13.2314 130.994 13.2314 129.333V128.966C13.2314 127.303 14.582 125.95 16.2412 125.95H63.9294C64.0575 125.95 64.161 126.054 64.161 126.182C64.161 126.311 64.0575 126.414 63.9294 126.414H16.2412C14.8366 126.414 13.6945 127.56 13.6945 128.966V129.333C13.6945 130.739 14.8366 131.883 16.2412 131.883H216.292C217.697 131.883 218.84 130.739 218.84 129.333V128.966C218.84 127.56 217.697 126.414 216.292 126.414H95.7031C95.575 126.414 95.4715 126.311 95.4715 126.182C95.4715 126.054 95.575 125.95 95.7031 125.95H216.292C217.953 125.95 219.303 127.303 219.303 128.966V129.333C219.303 130.994 217.953 132.347 216.292 132.347Z" fill="#27191C"/>
<path d="M22.8429 227.192H15.3433L28.9627 131.883H45.4376L22.8445 227.192H22.8429ZM15.8773 226.729H22.4771L44.8511 132.347H29.364L15.8773 226.729Z" fill="#27191C"/>
<path d="M205.979 227.192H167.573C167.445 227.192 167.341 227.089 167.341 226.961C167.341 226.832 167.445 226.729 167.573 226.729H205.516V132.347H167.573C167.445 132.347 167.341 132.243 167.341 132.115C167.341 131.987 167.445 131.883 167.573 131.883H205.979V227.192Z" fill="#27191C"/>
<path d="M167.571 227.194H127.679V186.641C127.679 186.513 127.783 186.409 127.911 186.409C128.039 186.409 128.142 186.513 128.142 186.641V226.73H167.571C167.7 226.73 167.803 226.834 167.803 226.962C167.803 227.09 167.7 227.194 167.571 227.194Z" fill="#27191C"/>
<path d="M167.571 227.194C167.443 227.194 167.34 227.09 167.34 226.962V217.378C167.34 217.25 167.443 217.146 167.571 217.146C167.699 217.146 167.803 217.25 167.803 217.378V226.962C167.803 227.09 167.699 227.194 167.571 227.194Z" fill="#27191C"/>
<path d="M167.571 186.22C167.443 186.22 167.34 186.117 167.34 185.989V132.115C167.34 131.987 167.443 131.883 167.571 131.883C167.699 131.883 167.803 131.987 167.803 132.115V185.989C167.803 186.117 167.699 186.22 167.571 186.22Z" fill="#27191C"/>
<path d="M125.003 114.734C127.062 114.912 129.096 115.416 131 116.218C131.232 116.315 131.462 116.419 131.689 116.526C131.906 116.628 132.136 116.726 132.329 116.87C132.476 116.978 132.607 117.141 132.632 117.314C132.658 117.495 132.561 117.623 132.411 117.71C132.228 117.815 131.99 117.813 131.772 117.788C131.507 117.758 131.243 117.699 130.98 117.652C130.428 117.553 129.874 117.455 129.321 117.357C128.076 117.136 126.83 116.915 125.584 116.692C125.461 116.671 125.334 116.726 125.299 116.855C125.268 116.968 125.338 117.118 125.461 117.141C126.631 117.349 127.801 117.558 128.971 117.765C129.562 117.87 130.153 117.976 130.744 118.081C131.03 118.132 131.315 118.189 131.602 118.231C131.877 118.271 132.169 118.297 132.437 118.204C132.672 118.124 132.897 117.968 133.01 117.741C133.134 117.493 133.115 117.22 133.002 116.971C132.785 116.49 132.241 116.274 131.794 116.066C130.789 115.604 129.749 115.221 128.682 114.927C127.478 114.595 126.245 114.378 125.001 114.27C124.876 114.259 124.77 114.385 124.77 114.502C124.77 114.637 124.876 114.723 125.001 114.734H125.003Z" fill="#27191C"/>
<path d="M116.463 119.003C118.937 119.187 121.439 118.816 123.763 117.952C124.091 117.83 124.415 117.699 124.736 117.557C124.892 117.489 125.046 117.417 125.2 117.343C125.277 117.306 125.353 117.269 125.429 117.232C125.461 117.217 125.494 117.199 125.526 117.182C125.538 117.176 125.657 117.124 125.603 117.139H125.48C126.191 117.269 126.903 117.394 127.614 117.519C127.738 117.541 127.864 117.487 127.9 117.357C127.931 117.246 127.861 117.094 127.738 117.071C127.358 117.005 126.977 116.937 126.597 116.867C126.41 116.833 126.222 116.801 126.035 116.767C125.947 116.751 125.861 116.736 125.773 116.719C125.668 116.7 125.554 116.662 125.45 116.7C125.279 116.765 125.117 116.867 124.952 116.946C124.782 117.026 124.611 117.105 124.438 117.181C124.109 117.325 123.774 117.455 123.436 117.575C122.013 118.085 120.53 118.413 119.023 118.53C118.173 118.597 117.318 118.598 116.466 118.535C116.341 118.526 116.234 118.648 116.234 118.767C116.234 118.9 116.341 118.99 116.466 118.999L116.463 119.003Z" fill="#27191C"/>
<path d="M124.95 112.339C126.259 112.452 127.565 112.587 128.869 112.744C130.153 112.899 131.44 113.064 132.717 113.278C132.977 113.321 133.246 113.374 133.479 113.503C133.666 113.609 133.819 113.769 133.879 113.97C133.934 114.157 133.897 114.324 133.757 114.453C133.748 114.46 133.74 114.468 133.731 114.476C133.735 114.473 133.752 114.46 133.731 114.476C133.711 114.49 133.691 114.502 133.67 114.513C133.649 114.525 133.629 114.536 133.606 114.545C133.581 114.556 133.599 114.548 133.606 114.545C133.59 114.552 133.575 114.558 133.559 114.562C133.507 114.581 133.454 114.595 133.402 114.606C133.349 114.616 133.299 114.624 133.271 114.627C133.016 114.654 132.76 114.637 132.505 114.624C132.18 114.609 131.852 114.593 131.527 114.578C130.868 114.547 130.209 114.516 129.549 114.485C128.231 114.423 126.912 114.363 125.594 114.301C125.427 114.293 125.26 114.286 125.095 114.278C124.97 114.272 124.864 114.389 124.864 114.51C124.864 114.64 124.97 114.735 125.095 114.742C126.478 114.807 127.859 114.87 129.242 114.935C129.928 114.967 130.611 114.998 131.297 115.031L132.334 115.079C132.615 115.091 132.899 115.117 133.18 115.097C133.67 115.065 134.252 114.865 134.353 114.309C134.402 114.037 134.334 113.755 134.181 113.527C134.012 113.273 133.771 113.108 133.491 112.993C133.223 112.884 132.934 112.839 132.649 112.795C132.309 112.743 131.968 112.692 131.627 112.642C130.937 112.542 130.247 112.449 129.557 112.361C128.197 112.188 126.835 112.041 125.47 111.917C125.299 111.902 125.127 111.887 124.956 111.873C124.831 111.862 124.725 111.987 124.725 112.104C124.725 112.239 124.831 112.326 124.956 112.336L124.95 112.339Z" fill="#27191C"/>
<path d="M114.799 110.871C115.659 110.628 116.518 110.387 117.378 110.144C117.665 110.064 117.543 109.616 117.255 109.698C116.395 109.94 115.535 110.181 114.675 110.424C114.388 110.505 114.51 110.953 114.799 110.871Z" fill="#27191C"/>
<path d="M114.799 110.874C116.4 110.429 118.002 109.984 119.589 109.492C121.144 109.01 122.688 108.483 124.214 107.915C125.738 107.35 127.236 106.728 128.731 106.09C129.371 105.816 130.158 105.529 130.808 105.937C131.081 106.108 131.265 106.377 131.256 106.699C131.246 106.979 131.081 107.255 130.888 107.472C130.649 107.738 130.359 107.943 130.055 108.129C129.726 108.331 129.38 108.504 129.028 108.665C128.317 108.99 127.55 109.228 126.781 109.364C126.607 109.395 126.432 109.412 126.256 109.432C126.133 109.446 126.025 109.528 126.025 109.664C126.025 109.778 126.131 109.909 126.256 109.895C126.667 109.848 127.07 109.789 127.471 109.69C127.872 109.591 128.266 109.466 128.652 109.319C129.411 109.031 130.183 108.67 130.823 108.161C131.37 107.728 131.896 107.045 131.666 106.305C131.547 105.92 131.243 105.615 130.882 105.448C130.493 105.269 130.084 105.238 129.664 105.303C129.257 105.365 128.874 105.527 128.497 105.688C128.109 105.853 127.721 106.022 127.332 106.187C126.577 106.51 125.813 106.812 125.046 107.105C123.46 107.716 121.856 108.28 120.238 108.798C118.605 109.322 116.954 109.787 115.302 110.249C115.094 110.308 114.886 110.365 114.677 110.424C114.39 110.505 114.512 110.951 114.801 110.871L114.799 110.874Z" fill="#27191C"/>
<path d="M126.25 109.895C126.144 109.899 126.236 109.895 126.264 109.895C126.289 109.897 126.315 109.897 126.34 109.899C126.391 109.9 126.442 109.903 126.491 109.905C126.605 109.909 126.719 109.916 126.832 109.923C127.04 109.936 127.249 109.948 127.457 109.963C127.88 109.994 128.303 110.033 128.726 110.078C129.562 110.168 130.396 110.285 131.225 110.429C131.626 110.498 132.026 110.569 132.424 110.653C132.77 110.724 133.16 110.777 133.45 110.998C133.691 111.182 133.828 111.508 133.643 111.766C133.463 112.018 133.098 112.134 132.804 112.208C132.399 112.309 131.986 112.367 131.572 112.404C131.339 112.426 131.106 112.44 130.873 112.451C130.763 112.455 130.652 112.458 130.542 112.46C130.482 112.46 130.422 112.46 130.362 112.46C130.339 112.46 130.314 112.458 130.291 112.46C130.271 112.463 130.249 112.466 130.229 112.468C130.286 112.463 130.303 112.46 130.28 112.46C130.155 112.454 130.049 112.571 130.049 112.692C130.049 112.822 130.155 112.918 130.28 112.924C130.296 112.924 130.303 112.921 130.32 112.921C130.407 112.916 130.291 112.908 130.345 112.925C130.39 112.939 130.459 112.925 130.507 112.925C130.617 112.925 130.728 112.922 130.837 112.918C131.06 112.91 131.28 112.891 131.501 112.876C131.925 112.846 132.354 112.783 132.77 112.693C133.154 112.61 133.541 112.485 133.847 112.227C134.17 111.953 134.285 111.522 134.123 111.128C133.96 110.727 133.583 110.488 133.186 110.359C132.784 110.228 132.351 110.166 131.936 110.089C131.043 109.923 130.143 109.784 129.24 109.674C128.737 109.614 128.232 109.563 127.726 109.521C127.473 109.501 127.221 109.483 126.968 109.467C126.841 109.46 126.715 109.453 126.588 109.446C126.525 109.443 126.462 109.439 126.398 109.436C126.374 109.436 126.347 109.433 126.323 109.433C126.298 109.43 126.298 109.433 126.321 109.438C126.298 109.432 126.276 109.429 126.253 109.43C125.955 109.439 125.955 109.903 126.253 109.894L126.25 109.895Z" fill="#27191C"/>
<path d="M109.96 108.149C109.937 108.149 109.916 108.146 109.892 108.138C109.602 108.048 109.312 107.957 109.023 107.866C102.58 105.815 96.4319 103.145 90.7535 99.9327C87.7314 98.223 85.1415 96.5674 82.8371 94.8686C82.7337 94.7928 82.7121 94.6475 82.7877 94.5439C82.8634 94.4404 83.0085 94.4187 83.1119 94.4945C85.4008 96.181 87.9753 97.8273 90.982 99.5277C96.6326 102.724 102.749 105.382 109.164 107.424C109.451 107.515 109.74 107.606 110.03 107.696C110.152 107.733 110.221 107.863 110.183 107.986C110.152 108.085 110.061 108.15 109.962 108.15L109.96 108.149Z" fill="#27191C"/>
<path d="M67.9284 161.124C67.9053 161.124 67.8806 161.121 67.8574 161.113C65.9296 160.493 63.9679 159.805 62.0216 159.067L61.9799 159.051C58.7279 157.811 55.465 156.406 52.2808 154.871C52.0169 154.744 51.7499 154.615 51.4844 154.483C50.4858 153.995 49.464 153.477 48.4515 152.945C48.3743 152.908 48.3203 152.828 48.3203 152.736C48.3203 152.608 48.4237 152.505 48.5518 152.505H48.6105L48.6614 152.531C49.6724 153.063 50.6911 153.579 51.6897 154.067C51.9536 154.199 52.2191 154.327 52.4815 154.454C55.6409 155.976 58.8791 157.374 62.108 158.604L62.1466 158.618C64.0976 159.36 66.067 160.051 67.9994 160.671C68.1213 160.71 68.1877 160.841 68.1491 160.963C68.1167 161.062 68.0272 161.124 67.9284 161.124Z" fill="#27191C"/>
<path d="M134.83 202.051C134.506 202.051 134.204 201.863 134.063 201.564L118.818 166.037C113.196 166.632 107.614 166.881 102.228 166.779C95.2544 166.652 88.3351 165.936 81.6612 164.652C81.5361 164.627 81.4528 164.506 81.4775 164.38C81.5022 164.254 81.6226 164.171 81.7491 164.196C88.3984 165.474 95.2914 166.187 102.237 166.313C107.658 166.415 113.277 166.16 118.939 165.556L119.109 165.537L134.484 201.373C134.551 201.512 134.707 201.6 134.864 201.586L150.91 200.154C150.987 200.148 151.054 200.11 151.098 200.048C151.141 199.986 151.157 199.912 151.138 199.839L141.609 154.911C140.915 152.062 139.379 149.529 137.17 147.592C135.73 146.329 134.079 145.386 132.26 144.789C132.196 144.768 132.137 144.748 132.077 144.729L132.035 144.715L92.2693 132.336C92.1474 132.298 92.0795 132.168 92.1165 132.046C92.1536 131.923 92.2848 131.855 92.4067 131.893L132.217 144.285C132.282 144.305 132.345 144.326 132.409 144.349C134.282 144.964 135.988 145.938 137.476 147.243C139.755 149.243 141.342 151.858 142.061 154.808L151.591 199.736C151.638 199.932 151.597 200.147 151.475 200.317C151.353 200.488 151.162 200.597 150.952 200.615L134.906 202.047C134.881 202.048 134.855 202.05 134.83 202.05V202.051Z" fill="#27191C"/>
<path d="M158.436 202.373C158.392 202.373 158.349 202.37 158.306 202.362C158.102 202.328 157.925 202.217 157.806 202.047L149.005 189.695C148.931 189.592 148.954 189.447 149.059 189.372C149.163 189.298 149.308 189.321 149.382 189.426L158.184 201.779C158.232 201.847 158.301 201.89 158.383 201.904C158.467 201.918 158.55 201.898 158.618 201.849L159.308 201.346L171.688 192.322C171.719 192.299 171.726 192.255 171.703 192.224L167.385 186.125L144.435 153.721C141.465 149.53 137.142 146.358 132.26 144.788C132.195 144.765 132.135 144.746 132.075 144.727L132.033 144.714C131.911 144.675 131.845 144.544 131.884 144.421C131.922 144.299 132.052 144.233 132.175 144.271L132.215 144.284C132.28 144.304 132.343 144.324 132.407 144.347C137.377 145.946 141.785 149.179 144.812 153.452L172.08 191.955C172.25 192.197 172.197 192.521 171.959 192.696L167.709 195.795L158.889 202.223C158.755 202.32 158.598 202.371 158.436 202.371V202.373Z" fill="#27191C"/>
<path d="M47.4006 153.073C44.6533 153.073 42.034 151.353 41.0076 148.73L40.9922 148.689V148.646C40.9922 148.518 41.0956 148.414 41.2237 148.414C41.3271 148.414 41.4151 148.482 41.4444 148.577C42.5434 151.367 45.5763 153.056 48.5088 152.509L48.5335 152.505C49.1555 152.389 49.7668 152.172 50.3517 151.861L64.0052 144.601C64.1178 144.54 64.2583 144.584 64.3185 144.697C64.3787 144.809 64.3355 144.95 64.2228 145.01L50.5694 152.271C49.935 152.608 49.2713 152.841 48.5968 152.965L48.5737 152.968C48.1832 153.039 47.7911 153.075 47.4006 153.075V153.073Z" fill="#27191C"/>
<path d="M77.856 137.73C77.7727 137.73 77.6924 137.685 77.6507 137.606C77.5905 137.493 77.6337 137.352 77.7464 137.292L85.1782 133.341L87.8283 131.91C87.941 131.849 88.0814 131.891 88.1416 132.004C88.2018 132.117 88.1601 132.257 88.0475 132.318L85.3958 133.749L77.9625 137.7C77.9285 137.719 77.8915 137.728 77.8545 137.728L77.856 137.73Z" fill="#27191C"/>
<path d="M42.2993 120.481C42.2993 120.481 42.2901 120.481 42.2854 120.481C42.1573 120.474 42.0601 120.364 42.0678 120.235L42.8828 106.386L42.7963 106.295L42.9522 106.135C43.0047 106.079 43.0772 106.056 43.1467 106.063H43.6776L43.3443 106.397L42.5278 120.262C42.52 120.385 42.4182 120.48 42.2962 120.48L42.2993 120.481Z" fill="#27191C"/>
<path d="M86.4904 105.87C86.3855 105.87 86.2898 105.798 86.2651 105.691L86.2003 105.41C85.3714 101.885 84.3805 98.1565 82.7661 94.782C82.5346 94.2997 82.3077 93.8576 82.0746 93.4325C81.1346 91.7135 80.0774 90.2265 78.8411 88.8862C77.2698 87.1827 75.4208 85.6709 73.3479 84.391C72.6286 83.9442 71.8585 83.5161 71.0605 83.1157C70.9463 83.0585 70.9 82.9194 70.9571 82.805C71.0142 82.6906 71.1531 82.6442 71.2673 82.7014C72.0792 83.1064 72.8617 83.5423 73.5918 83.9968C75.7017 85.2984 77.5816 86.838 79.1822 88.5724C80.4432 89.9405 81.5221 91.4569 82.4805 93.2099C82.7182 93.6427 82.9482 94.091 83.1844 94.581C84.8189 97.9942 85.8175 101.752 86.6525 105.304L86.7173 105.587C86.7467 105.713 86.6679 105.836 86.5445 105.866C86.5275 105.87 86.509 105.872 86.492 105.872L86.4904 105.87Z" fill="#27191C"/>
<path d="M79.0835 128.755C77.5971 128.755 76.0938 128.685 74.5935 128.526C70.9047 128.138 65.3312 127.206 59.7223 124.967C54.2415 122.78 50.0047 119.855 47.1323 116.277C45.5904 114.358 44.4421 112.231 43.7182 109.956C41.403 102.658 42.8832 94.7928 47.4889 89.9173C49.8148 87.4563 52.678 85.405 55.7664 83.9829C56.8685 83.4743 58.0106 83.0399 59.162 82.6952C59.2855 82.6581 59.4136 82.7277 59.4507 82.8498C59.4877 82.9719 59.4182 83.1018 59.2963 83.1389C58.1665 83.479 57.0444 83.9041 55.9624 84.4049C52.9265 85.8023 50.1127 87.8196 47.8269 90.2373C43.3354 94.9922 41.8954 102.677 44.1612 109.815C44.8681 112.036 45.9886 114.114 47.495 115.986C54.7956 125.079 68.9136 127.462 74.6445 128.065C82.7878 128.923 91.0036 127.153 96.4736 125.748C96.6202 125.708 96.7715 125.669 96.9243 125.63L96.9536 125.623C97.9646 125.357 98.9755 125.082 99.9603 124.802C101.848 124.27 103.686 123.72 105.866 123.057C108.914 122.126 112.09 121.098 115.577 119.912C116.023 119.761 116.287 119.296 116.188 118.832L114.14 109.186C114.032 108.68 113.597 108.314 113.081 108.294C110 108.172 101.846 107.772 92.689 106.694C90.789 106.47 89.0403 106.241 87.344 105.995L86.4566 105.866C85.0397 105.654 83.6212 105.423 82.2367 105.179C71.2627 103.238 64.0563 100.65 60.8197 97.4872C60.7286 97.3975 60.7271 97.2507 60.8151 97.1595C60.9046 97.0683 61.0512 97.0667 61.1423 97.1548C64.311 100.251 71.4356 102.797 82.3155 104.723C83.6953 104.966 85.1107 105.196 86.5229 105.406L87.4073 105.536C89.099 105.781 90.8431 106.009 92.74 106.232C101.882 107.308 110.022 107.707 113.097 107.829C113.824 107.858 114.438 108.376 114.591 109.089L116.639 118.734C116.786 119.429 116.392 120.123 115.724 120.35C112.231 121.537 109.05 122.567 105.998 123.497C103.816 124.16 101.974 124.712 100.084 125.245C99.0867 125.528 98.0618 125.808 97.0385 126.077L97.0076 126.085C96.8672 126.12 96.7267 126.158 96.5878 126.195C92.0856 127.352 85.7373 128.753 79.0819 128.753L79.0835 128.755Z" fill="#27191C"/>
<path d="M135.81 204.729C135.69 204.729 135.588 204.634 135.58 204.512L135.392 201.767C135.382 201.638 135.48 201.529 135.606 201.519C135.728 201.512 135.844 201.608 135.853 201.734L136.042 204.48C136.051 204.608 135.954 204.718 135.827 204.727C135.822 204.727 135.816 204.727 135.812 204.727L135.81 204.729Z" fill="#27191C"/>
<path d="M160.538 219.664L160.477 219.657C155.882 218.446 152.643 215.348 150.851 210.448C149.826 207.646 149.304 204.303 149.303 200.512C149.303 200.383 149.406 200.28 149.534 200.28C149.662 200.28 149.766 200.383 149.766 200.512C149.77 210.728 153.614 217.367 160.59 219.207C160.692 219.231 160.769 219.323 160.769 219.432C160.769 219.561 160.666 219.664 160.538 219.664Z" fill="#27191C"/>
<path d="M135.015 227.192C134.694 227.192 134.39 227.07 134.155 226.848C133.911 226.616 133.774 226.302 133.768 225.967L133.513 212.427C133.485 208.789 134.09 206.322 134.601 204.894C134.746 204.487 135.12 204.223 135.552 204.223H135.554C135.987 204.223 136.362 204.486 136.509 204.895C137.855 208.63 140.459 212.196 144.246 215.492C144.49 215.704 144.743 215.919 145.024 216.151C149.69 219.995 154.546 222.153 156.108 222.453C157.197 222.665 158.073 222.274 158.613 221.906C159.483 221.317 160.116 220.375 160.304 219.388L160.352 219.137L160.872 219.29C161.953 219.609 164.2 220.269 164.95 220.595C165.924 221.017 166.418 221.58 166.42 222.269C166.42 223.629 164.469 224.96 162.797 225.687C161.363 226.31 158.729 226.875 154.324 226.03C150.963 225.384 147.341 223.186 144.893 221.456C142.451 219.732 140.031 217.636 138.577 215.987C138.509 215.911 138.444 215.835 138.383 215.763C138.327 215.696 138.258 215.713 138.231 215.724C138.204 215.735 138.142 215.767 138.144 215.855L138.35 225.855C138.364 226.537 137.822 227.109 137.142 227.131L135.05 227.195C135.037 227.195 135.024 227.195 135.01 227.195L135.015 227.192ZM135.04 226.729L137.131 226.664C137.559 226.65 137.9 226.291 137.89 225.861L137.684 215.862C137.677 215.603 137.83 215.379 138.069 215.286C138.309 215.195 138.573 215.263 138.739 215.458C138.799 215.529 138.863 215.602 138.928 215.676C140.36 217.301 142.749 219.369 145.165 221.074C148.573 223.482 151.857 225.079 154.415 225.572C158.704 226.396 161.243 225.857 162.617 225.26C164.228 224.56 165.961 223.326 165.961 222.269C165.961 221.782 165.56 221.362 164.771 221.02C164.047 220.706 161.817 220.051 160.746 219.735L160.707 219.725C160.443 220.737 159.774 221.683 158.875 222.291C158.008 222.878 156.994 223.098 156.023 222.909C154.169 222.552 149.3 220.27 144.733 216.509C144.449 216.276 144.192 216.058 143.945 215.843C140.096 212.495 137.449 208.865 136.075 205.055C135.978 204.786 135.743 204.688 135.555 204.688C135.368 204.688 135.135 204.784 135.04 205.053C134.54 206.447 133.951 208.857 133.978 212.424L134.232 225.96C134.237 226.172 134.323 226.368 134.476 226.515C134.629 226.661 134.828 226.741 135.041 226.732L135.04 226.729Z" fill="#27191C"/>
<path d="M160.638 203.427C160.566 203.427 160.496 203.393 160.45 203.331L159.255 201.669C159.181 201.566 159.204 201.42 159.308 201.346C159.411 201.272 159.556 201.295 159.63 201.399L160.825 203.061C160.899 203.164 160.876 203.309 160.772 203.384C160.731 203.413 160.684 203.427 160.637 203.427H160.638Z" fill="#27191C"/>
<path d="M184.914 203.203C181.858 203.203 178.959 202.132 176.253 199.994C173.078 197.485 171.185 194.24 170.68 193.305C170.62 193.192 170.661 193.051 170.774 192.991C170.887 192.931 171.027 192.973 171.087 193.085C172.233 195.206 178.499 205.602 189.421 201.974L189.473 201.963C189.6 201.951 189.714 202.045 189.725 202.173C189.735 202.288 189.661 202.39 189.555 202.418C187.973 202.942 186.423 203.204 184.912 203.204L184.914 203.203Z" fill="#27191C"/>
<path d="M171.663 222.85C171.586 222.85 171.51 222.842 171.433 222.829C171.103 222.767 170.817 222.58 170.629 222.301L163.037 211.096C161.032 208.063 160.194 205.665 159.843 204.189C159.743 203.769 159.913 203.343 160.274 203.105C160.637 202.867 161.095 202.883 161.442 203.146C164.607 205.54 168.731 207.103 173.701 207.794C174.017 207.839 174.347 207.88 174.712 207.921C180.717 208.592 185.96 207.744 187.434 207.143C188.464 206.724 188.982 205.919 189.236 205.316C189.643 204.347 189.66 203.212 189.282 202.281L189.186 202.045L189.699 201.892C190.779 201.567 193.026 200.89 193.833 200.753C194.878 200.573 195.601 200.776 195.977 201.352C196.72 202.492 195.809 204.674 194.804 206.196C193.943 207.502 192.045 209.415 187.891 211.114C184.724 212.41 180.49 212.547 177.496 212.436C174.509 212.326 171.339 211.893 169.223 211.306C169.126 211.278 169.03 211.252 168.937 211.224C168.854 211.199 168.806 211.25 168.789 211.274C168.772 211.297 168.738 211.36 168.788 211.431L174.412 219.697C174.795 220.261 174.653 221.035 174.094 221.425L172.376 222.623C172.165 222.77 171.918 222.847 171.666 222.847L171.663 222.85ZM160.834 203.402C160.717 203.402 160.611 203.441 160.527 203.495C160.371 203.597 160.228 203.806 160.293 204.082C160.634 205.523 161.453 207.865 163.42 210.839L171.01 222.043C171.129 222.218 171.308 222.335 171.517 222.374C171.725 222.413 171.935 222.368 172.108 222.246L173.826 221.048C174.178 220.804 174.267 220.315 174.026 219.961L168.402 211.696C168.257 211.482 168.261 211.21 168.413 211.003C168.564 210.796 168.822 210.708 169.067 210.782C169.157 210.808 169.249 210.835 169.343 210.861C171.429 211.439 174.557 211.866 177.51 211.974C181.679 212.13 185.301 211.672 187.712 210.686C191.756 209.032 193.588 207.193 194.414 205.94C195.383 204.473 196.163 202.492 195.585 201.606C195.32 201.198 194.755 201.065 193.908 201.21C193.128 201.343 190.898 202.014 189.827 202.337L189.796 202.346C190.128 203.339 190.08 204.498 189.66 205.498C189.252 206.464 188.524 207.203 187.606 207.576C185.858 208.29 180.535 209.041 174.658 208.384C174.289 208.343 173.955 208.301 173.636 208.256C168.586 207.554 164.389 205.961 161.162 203.518C161.052 203.436 160.939 203.404 160.833 203.404L160.834 203.402Z" fill="#27191C"/>
<path d="M66.4517 87.3899C62.8616 87.3899 59.2191 83.2579 59.0539 83.0693C58.9706 82.9735 58.9798 82.8266 59.0755 82.7416C59.1712 82.6566 59.3178 82.6674 59.4027 82.7632C59.4444 82.8112 63.5809 87.5043 67.1463 86.8643C68.7623 86.5737 70.0402 85.2149 70.9463 82.8266C70.991 82.7076 71.1253 82.6473 71.2441 82.6921C71.363 82.737 71.4232 82.8714 71.3784 82.9905C70.4107 85.5426 69.0138 87.0003 67.2265 87.3203C66.9688 87.3667 66.7095 87.3883 66.4502 87.3883L66.4517 87.3899Z" fill="#27191C"/>
<path d="M139.04 157.7C138.923 157.7 138.822 157.612 138.81 157.491C138.362 153.132 135.316 149.152 131.23 147.586C131.111 147.539 131.051 147.406 131.096 147.286C131.142 147.167 131.275 147.106 131.395 147.153C135.64 148.781 138.805 152.916 139.27 157.443C139.284 157.57 139.191 157.685 139.063 157.698C139.055 157.698 139.048 157.698 139.038 157.698L139.04 157.7Z" fill="#27191C"/>
<path d="M136.08 160.787C135.964 160.787 135.866 160.7 135.85 160.583C135.5 157.748 134.1 155.007 132.012 153.061C131.917 152.974 131.913 152.828 131.999 152.733C132.087 152.639 132.232 152.634 132.326 152.721C134.493 154.74 135.946 157.584 136.309 160.524C136.324 160.651 136.234 160.767 136.108 160.782C136.099 160.782 136.089 160.784 136.079 160.784L136.08 160.787Z" fill="#27191C"/>
<path d="M70.6633 79.2248C70.5738 79.2248 70.4889 79.1723 70.4503 79.0842C70.3994 78.9667 70.4534 78.8307 70.5707 78.7797C71.9614 78.1783 73.1066 77.0174 73.7163 75.5953C74.3059 74.2164 74.3831 72.4959 74.4525 70.9764L74.4726 70.5389C74.5143 69.6902 74.5343 68.8184 74.5528 67.9744C74.5729 67.1242 74.593 66.243 74.6346 65.3898C74.718 63.7033 74.2071 62.0276 73.1992 60.6735L73.1853 60.6549C73.1468 60.6054 73.1097 60.556 73.0727 60.508C72.3349 59.5775 71.3918 58.8617 70.2651 58.381C67.1396 57.0485 63.3489 57.8972 61.2529 60.3983C59.9795 61.9178 59.2201 63.8764 59.1152 65.9107C59.109 66.039 59.0025 66.1379 58.8713 66.1302C58.7432 66.124 58.646 66.0143 58.6521 65.886C58.7633 63.7512 59.5597 61.6952 60.8979 60.0984C63.122 57.4442 67.1365 56.5415 70.4457 57.9528C71.6434 58.4645 72.6498 59.225 73.4338 60.2174C73.474 60.2669 73.5126 60.3195 73.5542 60.372L73.5697 60.3921C74.6439 61.8344 75.1872 63.6167 75.0992 65.4098C75.0576 66.257 75.0375 67.1334 75.0174 67.9821C74.9974 68.8277 74.9773 69.7026 74.9372 70.559L74.9171 70.9949C74.8461 72.5531 74.7674 74.3184 74.1438 75.7746C73.4894 77.3049 72.2546 78.554 70.7575 79.2017C70.7282 79.214 70.6957 79.2202 70.6664 79.2202L70.6633 79.2248Z" fill="#27191C"/>
<path d="M59.4197 72.06C58.4318 72.06 57.4888 71.6952 56.8436 71.0366C55.9206 70.0937 55.6366 68.7256 56.1367 67.6327C56.5998 66.6202 57.6632 65.8504 58.8486 65.6742C58.9767 65.6556 59.0924 65.7422 59.1125 65.869C59.131 65.9957 59.0446 66.1132 58.918 66.1318C57.8839 66.2863 56.9594 66.951 56.5596 67.8244C56.146 68.7303 56.3991 69.9175 57.177 70.7105C57.8777 71.4262 58.9921 71.74 60.088 71.5329C60.213 71.5081 60.3349 71.5916 60.3581 71.7168C60.3812 71.842 60.2994 71.9641 60.1744 71.9873C59.9228 72.0352 59.6712 72.0584 59.4212 72.0584L59.4197 72.06Z" fill="#27191C"/>
<path d="M71.1624 83.142C71.0482 83.142 70.9478 83.0569 70.9324 82.9395L70.4339 79.0224C70.4184 78.8956 70.5079 78.7797 70.6345 78.7627C70.7626 78.7457 70.8768 78.8369 70.8938 78.9636L71.3924 82.8792C71.4078 83.0059 71.3183 83.1219 71.1917 83.1389C71.1824 83.1389 71.1716 83.1404 71.1624 83.1404V83.142Z" fill="#27191C"/>
<path d="M57.4116 69.2713C57.3823 69.2713 57.353 69.2651 57.3252 69.2543C57.2063 69.2064 57.1492 69.0719 57.1971 68.9529C57.6323 67.8677 58.8362 67.877 59.415 67.8816C59.5431 67.8816 59.645 67.9867 59.645 68.115C59.645 68.2418 59.5401 68.3454 59.4135 68.3454C59.3888 68.3454 59.3703 68.3454 59.3502 68.3454C58.5013 68.3454 57.8855 68.4845 57.6277 69.126C57.5907 69.2172 57.5042 69.2713 57.4132 69.2713H57.4116Z" fill="#27191C"/>
<path d="M59.1448 69.8324C59.1278 69.8324 59.1093 69.8309 59.0923 69.8263C58.4533 69.6763 57.9332 69.1198 57.8267 68.4706C57.8066 68.3438 57.8915 68.2248 58.0181 68.2047C58.1431 68.1846 58.2635 68.2696 58.2835 68.3964C58.3592 68.857 58.7435 69.2698 59.1973 69.3749C59.3223 69.4042 59.3994 69.5279 59.3701 69.6531C59.3454 69.7598 59.2497 69.8324 59.1448 69.8324Z" fill="#27191C"/>
<path d="M68.6883 71.318C68.6574 71.318 68.6281 71.3164 68.5972 71.3133C68.2963 71.2824 68.0354 71.1247 67.8255 70.9995C67.7159 70.9346 67.6804 70.7908 67.7453 70.6811C67.8116 70.5713 67.9536 70.5358 68.0632 70.6007C68.2515 70.7135 68.4475 70.831 68.6466 70.8511C68.7886 70.865 68.9708 70.8078 69.0202 70.6842C69.0742 70.5451 68.9754 70.3472 68.8782 70.1725L68.2114 68.9761C68.1496 68.8648 68.1882 68.7225 68.3009 68.6607C68.412 68.5989 68.554 68.6391 68.6158 68.7504L69.2825 69.9468C69.3906 70.1401 69.5897 70.4987 69.4523 70.8527C69.3304 71.168 68.9924 71.318 68.6898 71.318H68.6883Z" fill="#27191C"/>
<path d="M68.4507 75.9323C68.247 75.9323 68.0402 75.8921 67.8333 75.8117C67.057 75.5118 66.5368 74.5673 66.2374 73.8284C66.1633 73.646 66.188 73.4435 66.3038 73.2858C66.4195 73.1281 66.6032 73.0431 66.7977 73.0586L70.0374 73.3152C70.2087 73.3291 70.3631 73.4188 70.4588 73.561C70.5529 73.7016 70.5792 73.8732 70.5282 74.0324C70.3461 74.6137 69.8769 75.416 69.1561 75.7638C68.9246 75.8751 68.6884 75.9307 68.4492 75.9307L68.4507 75.9323ZM66.7529 73.5208C66.7128 73.5208 66.6881 73.544 66.6773 73.5594C66.6649 73.5764 66.648 73.6104 66.6665 73.6537C66.8841 74.1886 67.3441 75.1253 68 75.3789C68.3272 75.5056 68.6498 75.4948 68.957 75.3464C69.5064 75.0821 69.9216 74.4266 70.0883 73.8933C70.0976 73.8609 70.0883 73.8361 70.076 73.8191C70.0683 73.8067 70.0451 73.7789 70.0019 73.7758L66.7622 73.5192C66.7622 73.5192 66.756 73.5192 66.7529 73.5192V73.5208Z" fill="#27191C"/>
<path d="M59.2287 83.1497C59.1808 83.1497 59.1314 83.1342 59.0898 83.1033C58.9879 83.026 58.9663 82.8807 59.0435 82.7787C59.0836 82.7246 63.0333 77.3173 59.9294 71.8776C59.8661 71.7663 59.9047 71.624 60.0158 71.5607C60.127 71.4973 60.2674 71.5359 60.3322 71.6472C63.5889 77.356 59.4571 82.9997 59.4154 83.0569C59.3691 83.1172 59.2997 83.1497 59.2302 83.1497H59.2287Z" fill="#27191C"/>
<path d="M167.57 132.115L167.388 132.349L147.488 157.634L144.623 153.588C141.604 149.328 137.29 146.164 132.331 144.568C132.255 144.542 132.181 144.519 132.104 144.494L127.912 143.189V132.115H167.57Z" fill="#27191C"/>
<path d="M87.3761 105.768C87.1631 105.737 86.9486 105.706 86.7356 105.675C86.7078 105.55 86.68 105.427 86.6507 105.304C85.8805 102.033 84.973 98.5847 83.5576 95.3926C83.6564 95.5611 85.6799 98.9418 87.3761 105.768Z" fill="#27191C"/>
<path d="M79.196 73.0184C80.264 74.626 80.7348 76.6217 80.3628 78.6653C80.1436 79.8664 79.6574 80.9546 78.9737 81.8821C79.2886 82.9827 79.3611 84.1684 79.1419 85.3695C79.1126 85.5287 78.7885 87.6666 78.628 88.659C77.1015 87.0483 75.328 85.6137 73.3462 84.391C72.7952 84.0494 72.2149 83.7186 71.6145 83.4032C71.4679 83.1636 71.3289 82.9812 71.2086 82.9286L70.8505 78.908L70.8458 78.857C70.8458 78.857 71.3058 78.6328 71.5713 78.4999C71.5728 78.4999 71.5744 78.4999 71.5744 78.4983C71.6469 78.4612 71.7055 78.4319 71.7349 78.4149C72.7011 77.8769 73.3169 77.0607 73.7337 76.0977L73.7383 76.0884C73.9451 75.6061 74.1041 75.0882 74.2322 74.5487C74.3541 74.0324 74.4189 73.5053 74.4452 72.9751L74.6551 68.6313V68.6128L74.6767 68.1784C74.6103 68.0316 74.5378 67.8878 74.4622 67.7471C73.3632 65.6958 71.3783 64.2319 69.0693 63.8517C69.0523 63.8486 69.0338 63.8455 69.0153 63.8424C66.0179 63.3586 64.885 62.5377 64.4822 61.8622C64.4081 61.7385 64.3587 61.618 64.3263 61.5067C64.0824 61.8035 63.82 62.2487 63.5653 62.7433C63.5623 62.751 63.5576 62.7588 63.5545 62.765C63.516 62.8407 63.4774 62.918 63.4388 62.9953C63.4357 62.9999 63.4342 63.0046 63.4311 63.0092C63.394 63.0849 63.3585 63.1607 63.3215 63.2364C63.306 63.2673 63.2922 63.2983 63.2767 63.3292C63.2582 63.3678 63.2412 63.4065 63.2227 63.4451C63.1162 63.6739 63.0128 63.9042 62.9155 64.1268C62.7072 64.6029 62.613 65.1223 62.6285 65.6417C62.6439 66.1627 62.8137 66.6666 62.9109 67.1752C63.039 67.8368 63.0498 68.503 63.022 69.1724C63.0205 69.1894 63.0205 69.2033 63.019 69.2203C63.0143 69.3239 63.0082 69.4414 62.9974 69.5681C62.9974 69.5789 62.9974 69.5882 62.9943 69.599C62.9896 69.6531 62.9835 69.7088 62.9773 69.766C62.9773 69.7799 62.9742 69.7953 62.9727 69.8108C62.9649 69.8742 62.9557 69.9407 62.9464 70.0071C62.9449 70.0133 62.9449 70.0179 62.9433 70.0241C62.9325 70.0968 62.9202 70.171 62.9063 70.2452C62.9017 70.2653 62.8986 70.2869 62.8939 70.307C62.8831 70.3611 62.8708 70.4183 62.8584 70.474C62.8554 70.4894 62.8523 70.5049 62.8492 70.5203C62.8492 70.5234 62.8461 70.5265 62.8446 70.5312C62.789 70.7661 62.7149 71.0135 62.6161 71.2685C62.5714 71.386 62.4016 71.369 62.3815 71.2453C62.3321 70.9315 62.2766 70.6378 62.2164 70.3611C62.2071 70.3147 62.1963 70.2684 62.1855 70.222C62.1654 70.1339 62.1454 70.0473 62.1238 69.9623C62.1129 69.9159 62.1021 69.8696 62.0898 69.8247C62.0682 69.7428 62.0466 69.6655 62.025 69.5882C62.0126 69.5434 62.0003 69.497 61.9879 69.4537C61.9648 69.3795 61.9432 69.3084 61.9216 69.2388C61.9077 69.1956 61.8938 69.1507 61.8799 69.1075C61.8567 69.041 61.8336 68.9761 61.812 68.9127C61.7965 68.8709 61.7826 68.8277 61.7672 68.7875C61.7441 68.7256 61.7209 68.6669 61.6978 68.6082C61.6808 68.5695 61.6669 68.5293 61.6499 68.4907C61.6268 68.435 61.6036 68.3809 61.5789 68.3268C61.5635 68.2897 61.5465 68.2526 61.5311 68.2155C61.5064 68.1645 61.4817 68.115 61.457 68.0656C61.4415 68.0316 61.4246 67.996 61.4076 67.9635C61.3814 67.9125 61.3551 67.8662 61.3289 67.8182C61.2934 67.7502 61.2563 67.6868 61.2193 67.625C61.1992 67.591 61.1807 67.5555 61.1606 67.5245C61.1359 67.4859 61.1128 67.4503 61.0881 67.4132C61.0696 67.3854 61.0511 67.3576 61.0341 67.3313C61.0094 67.2958 60.9847 67.2618 60.96 67.2277C60.9415 67.2046 60.9245 67.1783 60.906 67.1551C60.8813 67.1226 60.8566 67.0917 60.8334 67.0608C60.8149 67.0392 60.7979 67.016 60.7794 66.9959C60.7547 66.9665 60.73 66.9387 60.7053 66.9108C60.6883 66.8907 60.6714 66.8707 60.6544 66.8521C60.6297 66.8258 60.605 66.8011 60.5803 66.7748C60.5633 66.7578 60.5479 66.7408 60.5309 66.7238C60.5062 66.7006 60.4815 66.6774 60.4584 66.6558C60.4414 66.6403 60.4244 66.6249 60.409 66.6094C60.3843 66.5893 60.3611 66.5677 60.338 66.5491C60.321 66.5352 60.3056 66.5228 60.2901 66.5089C60.267 66.4904 60.2438 66.4718 60.2207 66.4548C60.2052 66.444 60.1898 66.4316 60.1759 66.4208C60.1528 66.4054 60.1296 66.3884 60.1065 66.3729C60.0926 66.3636 60.0787 66.3544 60.0648 66.3451C60.0416 66.3312 60.02 66.3157 59.9969 66.3033C59.9845 66.2956 59.9722 66.2879 59.9598 66.2802C59.6727 66.1132 59.3378 66.0591 59.0106 66.1163C58.8408 66.1457 58.7173 66.1395 58.5645 66.1874C58.5491 66.192 58.4426 66.0977 58.4272 66.1024C58.0753 66.2183 57.2109 66.7393 57.1291 66.8258C56.7525 67.2138 56.2401 67.9017 56.1583 68.4366C56.0086 69.412 56.6105 70.5992 57.4023 71.1588C58.012 71.59 58.4827 71.6952 59.2251 71.6704C59.3316 71.6658 60.0987 71.6225 60.0987 71.6225C60.2191 71.6225 60.5232 72.4263 60.7763 73.1096C60.7887 73.1405 60.801 73.1714 60.8118 73.2023C60.8427 73.2812 60.872 73.36 60.8982 73.4389C60.9029 73.4481 60.906 73.4574 60.9091 73.4651C60.9708 73.6321 61.0264 73.7758 61.0696 73.881C61.3922 74.6539 61.403 75.3866 61.4508 76.2414C61.4554 76.311 61.4539 76.3759 61.4508 76.4408C61.4462 76.5181 61.4385 76.5939 61.4369 76.6743C61.3736 78.1768 61.0372 79.466 60.4985 80.8526C60.4398 81.0072 60.0694 81.7507 59.6604 82.5731C59.4242 82.7988 59.185 83.0245 58.9411 83.2502C57.9317 83.5686 56.93 83.9551 55.9592 84.4049C53.2489 85.6524 50.7176 87.3914 48.5799 89.4706C47.6245 87.6712 47.1522 85.4916 49.1263 82.8993C49.2791 82.6983 49.719 82.1913 49.719 82.1913C46.1613 80.9222 43.9418 77.2849 44.6333 73.4868C45.104 70.9053 46.8111 68.8462 49.0445 67.7935C48.3314 66.3559 48.0567 64.6895 48.3669 62.9906C48.9503 59.7846 51.4399 57.384 54.479 56.7162C55.8388 53.3184 59.4783 51.213 63.2659 51.8716C64.6597 52.1127 65.9006 52.7001 66.9177 53.5256C68.5569 52.4636 70.5912 51.9906 72.6718 52.3508C76.6662 53.0448 79.4198 56.5678 79.196 60.4586C81.542 62.1636 82.837 65.0868 82.286 68.1104C81.914 70.154 80.7657 71.8683 79.196 73.0184Z" fill="#27191C"/>
<path d="M72.9525 68.1104C72.9525 67.5616 72.5095 67.118 71.9616 67.118C71.4137 67.118 70.9707 67.5616 70.9707 68.1104C70.9707 68.6592 71.4137 69.1028 71.9616 69.1028C72.5095 69.1028 72.9525 68.6592 72.9525 68.1104Z" fill="#27191C"/>
<path d="M65.2463 66.6403C64.6983 66.6403 64.2554 67.084 64.2554 67.6327C64.2554 68.1815 64.6983 68.6252 65.2463 68.6252C65.7942 68.6252 66.2372 68.1815 66.2372 67.6327C66.2372 67.084 65.7942 66.6403 65.2463 66.6403Z" fill="#27191C"/>
<path d="M139.329 120.248H151.251L145.046 97.6263H135.564L139.329 120.248Z" fill="#5D97C1"/>
<path d="M135.564 97.6263V120.248H139.329L135.564 97.6263Z" fill="#27191C"/>
<path d="M108.216 65.6958H172.278C173.018 65.6958 173.617 66.2972 173.617 67.0361V111.087C173.617 111.828 173.016 112.428 172.278 112.428H108.216C107.476 112.428 106.877 111.826 106.877 111.087V67.0361C106.877 66.2956 107.478 65.6958 108.216 65.6958Z" fill="#5D97C1"/>
<path d="M111.377 65.6958H175.44C176.179 65.6958 176.778 66.2972 176.778 67.0361V111.087C176.778 111.828 176.177 112.428 175.44 112.428H111.377C110.637 112.428 110.039 111.826 110.039 111.087V67.0361C110.039 66.2956 110.639 65.6958 111.377 65.6958Z" fill="#95C7EC"/>
<rect x="127.109" y="83.6624" width="35.1314" height="10.8016" fill="white"/>
<path d="M135.104 89.0632H128.551V85.7545H135.104V89.0632Z" fill="#3069B1"/>
<path d="M131.831 92.372H128.551V89.0633H131.831V92.372Z" fill="#FFC032"/>
<path d="M135.103 92.372H131.831V89.0633H135.103V92.372Z" fill="#90C4E9"/>
<path d="M138.501 91.0012V87.7713H137.283V87.338H140.211V87.7713H138.993V91.0012H138.501ZM141.836 90.6704C141.664 90.8122 141.508 90.9146 141.352 90.9697C141.196 91.0327 141.024 91.0564 140.844 91.0564C140.555 91.0564 140.329 90.9855 140.165 90.8437C140.008 90.7019 139.93 90.5207 139.93 90.3001C139.93 90.1662 139.962 90.048 140.024 89.9456C140.079 89.8353 140.157 89.7486 140.258 89.6856C140.352 89.6226 140.461 89.5674 140.579 89.5359C140.672 89.5123 140.805 89.4887 140.985 89.4729C141.352 89.4256 141.625 89.3784 141.797 89.3154C141.797 89.2523 141.797 89.2129 141.797 89.1972C141.797 89.016 141.758 88.8821 141.672 88.8112C141.555 88.7088 141.383 88.6615 141.157 88.6615C140.938 88.6615 140.782 88.693 140.68 88.7718C140.579 88.8427 140.5 88.9766 140.454 89.1657L140.008 89.1027C140.047 88.9136 140.118 88.7639 140.211 88.6457C140.297 88.5354 140.438 88.4409 140.61 88.3779C140.782 88.3149 140.993 88.2834 141.219 88.2834C141.445 88.2834 141.633 88.3149 141.774 88.3621C141.922 88.4173 142.023 88.4882 142.094 88.567C142.156 88.6457 142.203 88.7481 142.234 88.8742C142.25 88.953 142.258 89.0869 142.258 89.2838V89.8904C142.258 90.308 142.266 90.5679 142.289 90.6782C142.305 90.7885 142.344 90.8988 142.398 91.0012H141.922C141.875 90.9067 141.852 90.7964 141.836 90.6704ZM141.797 89.6699C141.633 89.7329 141.383 89.788 141.055 89.8353C140.868 89.8668 140.735 89.8904 140.657 89.9298C140.579 89.9613 140.524 90.0086 140.477 90.0716C140.438 90.1347 140.415 90.2056 140.415 90.2843C140.415 90.4104 140.461 90.5049 140.555 90.5837C140.649 90.6625 140.782 90.7097 140.953 90.7097C141.133 90.7097 141.289 90.6704 141.422 90.5916C141.563 90.5207 141.656 90.4183 141.727 90.2843C141.774 90.1819 141.797 90.0322 141.797 89.8353V89.6699ZM142.953 91.0012V87.338H143.406V91.0012H142.953ZM144.101 91.0012V87.338H144.554V91.0012H144.101ZM145.241 92.0253L145.187 91.5999C145.288 91.6236 145.374 91.6393 145.452 91.6393C145.554 91.6393 145.632 91.6236 145.694 91.5921C145.749 91.5527 145.804 91.5054 145.843 91.4503C145.866 91.403 145.913 91.2927 145.983 91.1115C145.991 91.0879 145.999 91.0485 146.022 91.0012L145.007 88.3464H145.491L146.053 89.8826C146.124 90.0795 146.186 90.2843 146.249 90.497C146.296 90.2922 146.358 90.0874 146.436 89.8904L147.006 88.3464H147.459L146.436 91.0406C146.327 91.3321 146.249 91.5369 146.186 91.6472C146.108 91.7969 146.014 91.8993 145.905 91.9702C145.804 92.0411 145.679 92.0726 145.53 92.0726C145.444 92.0726 145.351 92.0569 145.241 92.0253ZM147.904 91.0012V87.338H149.302C149.545 87.338 149.732 87.3459 149.865 87.3695C150.044 87.401 150.201 87.4562 150.326 87.5428C150.443 87.6295 150.544 87.7477 150.622 87.8973C150.693 88.047 150.732 88.2125 150.732 88.3936C150.732 88.7088 150.63 88.9687 150.427 89.1893C150.232 89.402 149.865 89.5123 149.341 89.5123H148.396V91.0012H147.904ZM148.396 89.079H149.349C149.67 89.079 149.896 89.016 150.029 88.9057C150.162 88.7875 150.224 88.6221 150.224 88.4094C150.224 88.2597 150.185 88.1258 150.107 88.0155C150.029 87.9052 149.927 87.8343 149.802 87.8028C149.716 87.7792 149.568 87.7713 149.341 87.7713H148.396V89.079ZM151.294 91.0012V88.3464H151.7V88.7481C151.802 88.5591 151.903 88.433 151.989 88.3779C152.075 88.3149 152.177 88.2834 152.278 88.2834C152.434 88.2834 152.59 88.3306 152.747 88.433L152.59 88.8506C152.481 88.7797 152.372 88.7481 152.262 88.7481C152.161 88.7481 152.067 88.7797 151.989 88.8427C151.911 88.8978 151.856 88.9766 151.825 89.0869C151.77 89.2445 151.747 89.4178 151.747 89.6068V91.0012H151.294ZM153.02 87.8501V87.338H153.473V87.8501H153.02ZM153.02 91.0012V88.3464H153.473V91.0012H153.02ZM154.168 91.0012V88.3464H154.574V88.7166C154.66 88.5906 154.769 88.4803 154.91 88.4015C155.051 88.3227 155.207 88.2834 155.386 88.2834C155.59 88.2834 155.754 88.3227 155.879 88.4094C156.003 88.4882 156.097 88.6063 156.144 88.7481C156.355 88.4409 156.636 88.2834 156.972 88.2834C157.237 88.2834 157.448 88.3543 157.589 88.5039C157.73 88.6536 157.8 88.8742 157.8 89.1736V91.0012H157.355V89.3311C157.355 89.1499 157.339 89.016 157.308 88.9372C157.277 88.8584 157.222 88.7954 157.144 88.7481C157.073 88.7009 156.98 88.6772 156.87 88.6772C156.683 88.6772 156.527 88.7403 156.402 88.8584C156.277 88.9845 156.214 89.1814 156.214 89.4572V91.0012H155.761V89.276C155.761 89.079 155.722 88.9215 155.652 88.8269C155.574 88.7245 155.457 88.6772 155.285 88.6772C155.16 88.6772 155.043 88.7088 154.934 88.7718C154.824 88.8427 154.746 88.9372 154.699 89.0633C154.652 89.1972 154.621 89.3784 154.621 89.6226V91.0012H154.168ZM160.315 90.1425L160.783 90.2056C160.705 90.4734 160.572 90.6861 160.369 90.8358C160.174 90.9855 159.916 91.0564 159.604 91.0564C159.213 91.0564 158.901 90.9382 158.675 90.7019C158.44 90.4576 158.323 90.1268 158.323 89.6935C158.323 89.2523 158.44 88.9057 158.675 88.6536C158.909 88.4094 159.206 88.2834 159.581 88.2834C159.94 88.2834 160.229 88.4094 160.455 88.6457C160.682 88.8899 160.799 89.2287 160.799 89.6699C160.799 89.6935 160.799 89.7329 160.799 89.788H158.799C158.815 90.0795 158.893 90.3001 159.049 90.4576C159.198 90.6152 159.385 90.6861 159.604 90.6861C159.776 90.6861 159.916 90.6467 160.033 90.5601C160.151 90.4734 160.244 90.3316 160.315 90.1425ZM158.823 89.4178H160.322C160.299 89.1972 160.244 89.0239 160.151 88.9136C160.002 88.7403 159.815 88.6536 159.581 88.6536C159.377 88.6536 159.198 88.7245 159.057 88.8663C158.917 89.0002 158.839 89.1893 158.823 89.4178Z" fill="#3069B1"/>
<path d="M151.555 120.48H139.133L137.799 112.466C137.778 112.339 137.864 112.22 137.989 112.199C138.114 112.177 138.234 112.264 138.256 112.389L139.525 120.016H150.946L148.881 112.489C148.847 112.366 148.92 112.239 149.043 112.205C149.167 112.171 149.293 112.244 149.327 112.367L151.553 120.481L151.555 120.48Z" fill="#27191C"/>
<path d="M139.602 120.48H135.333V112.428C135.333 112.299 135.436 112.196 135.564 112.196C135.692 112.196 135.796 112.299 135.796 112.428V120.016H139.055L137.799 112.466C137.777 112.339 137.864 112.22 137.989 112.199C138.114 112.177 138.234 112.264 138.256 112.389L139.602 120.48Z" fill="#27191C"/>
<path d="M112.535 112.661H108.218C107.352 112.661 106.648 111.956 106.648 111.089V67.0376C106.648 66.1704 107.352 65.4655 108.218 65.4655H112.197C112.325 65.4655 112.428 65.5691 112.428 65.6974C112.428 65.8257 112.325 65.9292 112.197 65.9292H108.218C107.606 65.9292 107.111 66.427 107.111 67.0376V111.089C107.111 111.699 107.608 112.197 108.218 112.197H112.535C112.663 112.197 112.766 112.301 112.766 112.429C112.766 112.557 112.663 112.661 112.535 112.661Z" fill="#27191C"/>
<path d="M175.44 112.661H111.377C110.511 112.661 109.808 111.956 109.808 111.089V67.0376C109.808 66.1704 110.511 65.4655 111.377 65.4655H175.44C176.306 65.4655 177.01 66.1704 177.01 67.0376V111.089C177.01 111.956 176.306 112.661 175.44 112.661ZM111.377 65.9277C110.766 65.9277 110.271 66.4255 110.271 67.036V111.087C110.271 111.698 110.768 112.196 111.377 112.196H175.44C176.05 112.196 176.547 111.698 176.547 111.087V67.036C176.547 66.4255 176.05 65.9277 175.44 65.9277H111.377Z" fill="#27191C"/>
<path d="M4.01074 228.366H286.436" stroke="#979797" stroke-width="1.91679"/>
</svg>
